<?xml version="1.0" encoding="UTF-8"?>
<svg version="1.1" xmlns="http://www.w3.org/2000/svg" width="224" height="224">
<path d="M0 0 C2.375 0.6875 2.375 0.6875 3.375 1.6875 C10.97081042 2.78810041 18.62326843 3.07644938 26.28637695 3.35498047 C27.7225385 3.41007326 29.15844482 3.4722699 30.59399414 3.54150391 C38.49993193 3.92170969 45.07946162 4.0824535 52.375 0.6875 C54.69623422 1.40172591 55.7005625 2.0130625 57.375 3.6875 C59.10097572 3.81404328 60.83194662 3.87309652 62.56225586 3.90527344 C64.22550148 3.94101471 64.22550148 3.94101471 65.92234802 3.97747803 C67.13262161 4.00037903 68.3428952 4.02328003 69.58984375 4.046875 C72.13870076 4.11083836 74.68752839 4.17598101 77.23632812 4.2421875 C81.26488081 4.34436907 85.29328301 4.43938489 89.32250977 4.51074219 C93.20414305 4.58443651 97.0840501 4.68826442 100.96484375 4.796875 C102.15689926 4.81167908 103.34895477 4.82648315 104.57713318 4.84173584 C112.28639596 5.08874247 117.80095048 6.61737987 124.375 10.6875 C124.375 13.6575 124.375 16.6275 124.375 19.6875 C125.365 19.6875 126.355 19.6875 127.375 19.6875 C127.26131241 29.58348777 127.13537406 39.47928761 127 49.375 C126.98983479 50.11855869 126.97966957 50.86211739 126.96919632 51.62820816 C126.64777644 74.88586456 126.11036511 98.12878995 125.3125 121.375 C125.28944038 122.04707363 125.26638077 122.71914726 125.24262238 123.41158676 C124.96401656 131.50394692 124.67523762 139.59591414 124.375 147.6875 C123.385 147.6875 122.395 147.6875 121.375 147.6875 C121.43300781 148.30238281 121.49101562 148.91726562 121.55078125 149.55078125 C121.68770114 152.00360326 121.71292703 154.25269242 121.375 156.6875 C115.60903453 162.10401301 106.84360983 161.97336899 99.40063477 161.91455078 C98.42425552 161.91484283 97.44787628 161.91513489 96.44190979 161.91543579 C93.23331638 161.91404892 90.02495881 161.89851792 86.81640625 161.8828125 C84.58438748 161.87908009 82.35236707 161.87623419 80.12034607 161.87423706 C74.25956663 161.86661859 68.39888708 161.8469854 62.53814697 161.8248291 C56.55213777 161.8043322 50.56611235 161.79522712 44.58007812 161.78515625 C32.84500831 161.76373786 21.11001248 161.72962346 9.375 161.6875 C9.189375 162.863125 9.189375 162.863125 9 164.0625 C8.375 166.6875 8.375 166.6875 6.375 168.6875 C3.25 168.3125 3.25 168.3125 0.375 167.6875 C0.045 165.7075 -0.285 163.7275 -0.625 161.6875 C-1.594375 161.749375 -2.56375 161.81125 -3.5625 161.875 C-8.19421458 161.83719009 -12.60308106 161.07239822 -16.625 158.6875 C-18.22967755 155.09302228 -18.625 152.59040974 -18.625 148.6875 C-19.615 148.6875 -20.605 148.6875 -21.625 148.6875 C-22.41131521 140.54733116 -22.78670881 132.48554838 -22.83032227 124.30957031 C-22.84022186 123.13738953 -22.85012146 121.96520874 -22.86032104 120.75750732 C-22.89162147 116.92689962 -22.91656758 113.09627957 -22.94140625 109.265625 C-22.96200303 106.59234223 -22.98295582 103.9190646 -23.00437927 101.24578857 C-23.05400911 94.95633575 -23.0990563 88.66685904 -23.14240164 82.37736011 C-23.19203033 75.20911283 -23.24685219 68.0409081 -23.30208123 60.87270212 C-23.41544432 46.14434184 -23.52238021 31.41593915 -23.625 16.6875 C-22.965 16.3575 -22.305 16.0275 -21.625 15.6875 C-20.75126819 13.67602038 -20.75126819 13.67602038 -20.0625 11.3125 C-19.81371094 10.52101563 -19.56492187 9.72953125 -19.30859375 8.9140625 C-18.97021484 7.81191406 -18.97021484 7.81191406 -18.625 6.6875 C-18.295 5.6975 -17.965 4.7075 -17.625 3.6875 C-16.79355469 3.56632812 -15.96210937 3.44515625 -15.10546875 3.3203125 C-14.01878906 3.15273438 -12.93210937 2.98515625 -11.8125 2.8125 C-10.73355469 2.65007813 -9.65460937 2.48765625 -8.54296875 2.3203125 C-5.08271571 1.56989618 -3.54532385 -0.42206236 0 0 Z " fill="#42434A" transform="translate(53.625,31.3125)"/>
<path d="M0 0 C2.375 0.6875 2.375 0.6875 3.375 1.6875 C10.97081042 2.78810041 18.62326843 3.07644938 26.28637695 3.35498047 C27.7225385 3.41007326 29.15844482 3.4722699 30.59399414 3.54150391 C38.49993193 3.92170969 45.07946162 4.0824535 52.375 0.6875 C54.69623422 1.40172591 55.7005625 2.0130625 57.375 3.6875 C59.11655432 3.82451035 60.86345296 3.89418306 62.60986328 3.93701172 C63.72837677 3.96729462 64.84689026 3.99757751 65.9992981 4.02877808 C67.21898285 4.05795319 68.4386676 4.0871283 69.6953125 4.1171875 C72.25782789 4.19087283 74.82032749 4.26510919 77.3828125 4.33984375 C81.43798714 4.45429887 85.4932289 4.56330502 89.54882812 4.66162109 C93.45228121 4.75935044 97.35491654 4.87451303 101.2578125 4.9921875 C102.46535187 5.01731415 103.67289124 5.0424408 104.91702271 5.06832886 C111.12356137 5.26797253 115.88439126 5.70362573 121.375 8.6875 C120.715 10.6675 120.055 12.6475 119.375 14.6875 C95.74481736 14.83629026 72.12632966 14.59302383 48.5 14.1875 C47.45465277 14.16956327 47.45465277 14.16956327 46.38818741 14.15126419 C37.71702868 14.00198873 29.04597138 13.84729095 20.375 13.6875 C20.38023682 14.90630859 20.38547363 16.12511719 20.39086914 17.38085938 C20.40921531 21.98062379 20.42053818 26.5803851 20.42993164 31.18017578 C20.43490514 33.15641833 20.44168631 35.1326573 20.45043945 37.10888672 C20.50178652 49.01536589 20.32412034 60.81440052 19.375 72.6875 C19.045 72.6875 18.715 72.6875 18.375 72.6875 C18.045 96.4475 17.715 120.2075 17.375 144.6875 C17.045 144.6875 16.715 144.6875 16.375 144.6875 C16.045 142.0475 15.715 139.4075 15.375 136.6875 C15.045 141.9675 14.715 147.2475 14.375 152.6875 C48.035 152.6875 81.695 152.6875 116.375 152.6875 C116.375 154.9975 116.375 157.3075 116.375 159.6875 C110.59864826 161.66705125 105.47934375 161.96258786 99.40063477 161.91455078 C98.42425552 161.91484283 97.44787628 161.91513489 96.44190979 161.91543579 C93.23331638 161.91404892 90.02495881 161.89851792 86.81640625 161.8828125 C84.58438748 161.87908009 82.35236707 161.87623419 80.12034607 161.87423706 C74.25956663 161.86661859 68.39888708 161.8469854 62.53814697 161.8248291 C56.55213777 161.8043322 50.56611235 161.79522712 44.58007812 161.78515625 C32.84500831 161.76373786 21.11001248 161.72962346 9.375 161.6875 C9.189375 162.863125 9.189375 162.863125 9 164.0625 C8.375 166.6875 8.375 166.6875 6.375 168.6875 C3.25 168.3125 3.25 168.3125 0.375 167.6875 C0.045 165.7075 -0.285 163.7275 -0.625 161.6875 C-1.594375 161.749375 -2.56375 161.81125 -3.5625 161.875 C-8.19421458 161.83719009 -12.60308106 161.07239822 -16.625 158.6875 C-18.22967755 155.09302228 -18.625 152.59040974 -18.625 148.6875 C-19.615 148.6875 -20.605 148.6875 -21.625 148.6875 C-22.41131521 140.54733116 -22.78670881 132.48554838 -22.83032227 124.30957031 C-22.84022186 123.13738953 -22.85012146 121.96520874 -22.86032104 120.75750732 C-22.89162147 116.92689962 -22.91656758 113.09627957 -22.94140625 109.265625 C-22.96200303 106.59234223 -22.98295582 103.9190646 -23.00437927 101.24578857 C-23.05400911 94.95633575 -23.0990563 88.66685904 -23.14240164 82.37736011 C-23.19203033 75.20911283 -23.24685219 68.0409081 -23.30208123 60.87270212 C-23.41544432 46.14434184 -23.52238021 31.41593915 -23.625 16.6875 C-22.965 16.3575 -22.305 16.0275 -21.625 15.6875 C-20.75126819 13.67602038 -20.75126819 13.67602038 -20.0625 11.3125 C-19.81371094 10.52101563 -19.56492187 9.72953125 -19.30859375 8.9140625 C-18.97021484 7.81191406 -18.97021484 7.81191406 -18.625 6.6875 C-18.295 5.6975 -17.965 4.7075 -17.625 3.6875 C-16.79355469 3.56632812 -15.96210937 3.44515625 -15.10546875 3.3203125 C-14.01878906 3.15273438 -12.93210937 2.98515625 -11.8125 2.8125 C-10.73355469 2.65007813 -9.65460937 2.48765625 -8.54296875 2.3203125 C-5.08271571 1.56989618 -3.54532385 -0.42206236 0 0 Z " fill="#4E5058" transform="translate(53.625,31.3125)"/>
<path d="M0 0 C1.32 0.33 2.64 0.66 4 1 C4 3.97 4 6.94 4 10 C4.99 10 5.98 10 7 10 C6.88631241 19.89598777 6.76037406 29.79178761 6.625 39.6875 C6.61483479 40.43105869 6.60466957 41.17461739 6.59419632 41.94070816 C6.27277644 65.19836456 5.73536511 88.44128995 4.9375 111.6875 C4.91444038 112.35957363 4.89138077 113.03164726 4.86762238 113.72408676 C4.58901656 121.81644692 4.30023762 129.90841414 4 138 C3.01 138 2.02 138 1 138 C1.02320313 138.62648437 1.04640625 139.25296875 1.0703125 139.8984375 C1.08835938 140.71570313 1.10640625 141.53296875 1.125 142.375 C1.14820313 143.18710938 1.17140625 143.99921875 1.1953125 144.8359375 C1 147 1 147 -1 149 C-3.125 148.625 -3.125 148.625 -5 148 C-4.67 146.35 -4.34 144.7 -4 143 C-14.56 143 -25.12 143 -36 143 C-36.33 119.24 -36.66 95.48 -37 71 C-37.66 71 -38.32 71 -39 71 C-40.42944945 68.64561267 -41.08661261 67.51967567 -40.625 64.75 C-40.41875 64.1725 -40.2125 63.595 -40 63 C-39.01 63 -38.02 63 -37 63 C-36.67 50.79 -36.34 38.58 -36 26 C-35.67 26 -35.34 26 -35 26 C-34.67 32.93 -34.34 39.86 -34 47 C-33.67 41.72 -33.34 36.44 -33 31 C-32.67 31 -32.34 31 -32 31 C-30.90026234 44.35395734 -30.92387338 57.60171437 -31 71 C-30.67 56.81 -30.34 42.62 -30 28 C-29.67 28 -29.34 28 -29 28 C-28.67 34.27 -28.34 40.54 -28 47 C-27.67 40.73 -27.34 34.46 -27 28 C-26.67 28 -26.34 28 -26 28 C-25.94465088 29.1960083 -25.88930176 30.3920166 -25.83227539 31.62426758 C-25.62596077 36.05807072 -25.41404975 40.49159168 -25.20043945 44.92504883 C-25.10873987 46.84457269 -25.01856184 48.76416986 -24.92993164 50.68383789 C-24.80233514 53.44177571 -24.66928406 56.19940431 -24.53515625 58.95703125 C-24.49656998 59.81649857 -24.4579837 60.67596588 -24.41822815 61.56147766 C-24.35827919 62.76238289 -24.35827919 62.76238289 -24.29711914 63.98754883 C-24.24715538 65.04344963 -24.24715538 65.04344963 -24.19618225 66.12068176 C-24.04486591 68.22543688 -24.04486591 68.22543688 -23 71 C-22.34 71 -21.68 71 -21 71 C-21 57.47 -21 43.94 -21 30 C-20.67 30 -20.34 30 -20 30 C-19.67 38.25 -19.34 46.5 -19 55 C-18.67 48.4 -18.34 41.8 -18 35 C-17.67 35 -17.34 35 -17 35 C-16.505 41.93 -16.505 41.93 -16 49 C-16.495 33.655 -16.495 33.655 -17 18 C-17.33 22.29 -17.66 26.58 -18 31 C-18.33 31 -18.66 31 -19 31 C-19.19720979 27.41713181 -19.38107522 23.83369943 -19.5625 20.25 C-19.61857422 19.23421875 -19.67464844 18.2184375 -19.73242188 17.171875 C-19.78076172 16.1921875 -19.82910156 15.2125 -19.87890625 14.203125 C-19.9260376 13.30239258 -19.97316895 12.40166016 -20.02172852 11.47363281 C-20 9 -20 9 -19 5 C-13.06 5 -7.12 5 -1 5 C-0.67 3.35 -0.34 1.7 0 0 Z M-46 63 C-45.67 63 -45.34 63 -45 63 C-44.67 64.65 -44.34 66.3 -44 68 C-43.34 67.34 -42.68 66.68 -42 66 C-40.52327832 68.95344336 -40.90758106 71.57236418 -40.9375 74.8671875 C-40.94607989 76.31274345 -40.95453819 77.75830013 -40.96289062 79.20385742 C-40.96909424 79.9663681 -40.97529785 80.72887878 -40.98168945 81.51449585 C-41.10985827 98.03737864 -40.75208554 114.49212238 -40 131 C-39.34 129.68 -38.68 128.36 -38 127 C-38 131.95 -38 136.9 -38 142 C-40.31 142 -42.62 142 -45 142 C-45.80019807 131.82618273 -46.13833128 121.74372307 -46.09765625 111.53515625 C-46.09578396 110.12169953 -46.09436391 108.70824215 -46.09336853 107.29478455 C-46.0896071 103.63052479 -46.07983388 99.96630665 -46.06866455 96.30206299 C-46.05831079 92.54057376 -46.05384145 88.77907759 -46.04882812 85.01757812 C-46.03820372 77.67836674 -46.02120722 70.33918927 -46 63 Z " fill="#3A3B40" transform="translate(174,41)"/>
<path d="M0 0 C0.66 0.33 1.32 0.66 2 1 C2 8.92 2 16.84 2 25 C2.33 25 2.66 25 3 25 C3 62.95 3 100.9 3 140 C-1.62 140 -6.24 140 -11 140 C-11 141.98 -11 143.96 -11 146 C-12.65 145.67 -14.3 145.34 -16 145 C-16.33 142.03 -16.66 139.06 -17 136 C-17.99 136 -18.98 136 -20 136 C-20.77413772 128.03652711 -21.14164152 120.17177192 -21.11352539 112.17285156 C-21.11367142 111.0591922 -21.11381744 109.94553284 -21.1139679 108.79812622 C-21.11327809 105.1622718 -21.10552989 101.52647033 -21.09765625 97.890625 C-21.09578875 95.35186796 -21.09436642 92.81311056 -21.09336853 90.27435303 C-21.08995658 84.30361219 -21.08209661 78.332888 -21.07201904 72.36215568 C-21.06078546 65.55668905 -21.05532932 58.75122146 -21.05032361 51.94574785 C-21.03991169 37.96382165 -21.02235773 23.98191185 -21 10 C-19.68 9.67 -18.36 9.34 -17 9 C-17 8.01 -17 7.02 -17 6 C-15.0625 6.375 -15.0625 6.375 -13 7 C-12.67 7.66 -12.34 8.32 -12 9 C-11.67 6.69 -11.34 4.38 -11 2 C-10.34 2 -9.68 2 -9 2 C-9.00523682 2.61818604 -9.01047363 3.23637207 -9.01586914 3.87329102 C-9.03710487 6.76968297 -9.04980426 9.66605848 -9.0625 12.5625 C-9.07087891 13.53380859 -9.07925781 14.50511719 -9.08789062 15.50585938 C-9.11018821 22.35121909 -8.74871285 29.11158629 -8.25610352 35.93774414 C-7.75091699 43.42642527 -7.62875287 50.93574041 -7.4375 58.4375 C-7.293125 63.903125 -7.14875 69.36875 -7 75 C-6.67 55.86 -6.34 36.72 -6 17 C-3.73401552 20.39897673 -3.76257346 21.56319173 -3.8046875 25.54296875 C-3.80968262 26.51000732 -3.81467773 27.4770459 -3.81982422 28.47338867 C-3.84713623 30.31187378 -3.84713623 30.31187378 -3.875 32.1875 C-3.91625 36.085625 -3.9575 39.98375 -4 44 C-3.67 32.12 -3.34 20.24 -3 8 C-2.67 8 -2.34 8 -2 8 C-1.67 15.59 -1.34 23.18 -1 31 C-0.67 20.77 -0.34 10.54 0 0 Z " fill="#3E3F46" transform="translate(52,44)"/>
<path d="M0 0 C0.33 0 0.66 0 1 0 C1.33 18.48 1.66 36.96 2 56 C2.66 55.34 3.32 54.68 4 54 C5.37796569 56.75593138 5.16298939 59.01779814 5.20532227 62.10205078 C5.22550415 63.40118408 5.24568604 64.70031738 5.26647949 66.03881836 C5.28324925 67.42431487 5.29989251 68.80981292 5.31640625 70.1953125 C5.33505737 71.45142334 5.3537085 72.70753418 5.3729248 74.00170898 C5.44140081 78.70939876 5.50143545 83.41720826 5.5625 88.125 C5.706875 98.64375 5.85125 109.1625 6 120 C6.33 98.88 6.66 77.76 7 56 C7.33 56 7.66 56 8 56 C8.33 79.76 8.66 103.52 9 128 C9.33 107.21 9.66 86.42 10 65 C10.33 65 10.66 65 11 65 C11.33 80.51 11.66 96.02 12 112 C12.33 95.17 12.66 78.34 13 61 C13.33 61 13.66 61 14 61 C14 80.47 14 99.94 14 120 C14.66 120 15.32 120 16 120 C16 98.88 16 77.76 16 56 C16.33 56 16.66 56 17 56 C17.33 79.76 17.66 103.52 18 128 C18.33 106.88 18.66 85.76 19 64 C19.33 64 19.66 64 20 64 C20.33 82.48 20.66 100.96 21 120 C21.33 101.52 21.66 83.04 22 64 C22.33 64 22.66 64 23 64 C23.33 82.48 23.66 100.96 24 120 C24.33 98.88 24.66 77.76 25 56 C25.33 56 25.66 56 26 56 C26.33 74.48 26.66 92.96 27 112 C27.33 93.52 27.66 75.04 28 56 C28.33 56 28.66 56 29 56 C29.33 82.07 29.66 108.14 30 135 C25.61956478 135.73007254 22.08188721 136.11921726 17.7265625 136.09765625 C16.57285156 136.09443359 15.41914062 136.09121094 14.23046875 136.08789062 C13.04066406 136.07951172 11.85085937 136.07113281 10.625 136.0625 C9.41199219 136.05798828 8.19898437 136.05347656 6.94921875 136.04882812 C3.96609493 136.03708354 0.98307321 136.0206584 -2 136 C-2.81575469 106.99731715 -3.0930072 78.01234577 -3.0625 49 C-3.06164398 48.18012604 -3.06078796 47.36025208 -3.05990601 46.51553345 C-3.04849821 36.34366612 -3.02839676 26.17183455 -3 16 C-2.67 16 -2.34 16 -2 16 C-2 29.2 -2 42.4 -2 56 C-1.34 56 -0.68 56 0 56 C0 37.52 0 19.04 0 0 Z " fill="#333337" transform="translate(94,48)"/>
<path d="M0 0 C0.33 0 0.66 0 1 0 C1.33 5.28 1.66 10.56 2 16 C2.33 12.37 2.66 8.74 3 5 C3.33 5 3.66 5 4 5 C4.66 11.27 5.32 17.54 6 24 C6.66 24 7.32 24 8 24 C8.144375 25.2375 8.28875 26.475 8.4375 27.75 C8.78688502 30.56504499 9.20379366 33.2701497 10 36 C10 33.36 10 30.72 10 28 C10.66 28 11.32 28 12 28 C12 31.3 12 34.6 12 38 C11.34 38 10.68 38 10 38 C10 38.99 10 39.98 10 41 C10.66 41 11.32 41 12 41 C12.02354409 48.29541072 12.04112305 55.59081279 12.05181217 62.88625431 C12.05695166 66.27664642 12.06445796 69.66699201 12.07543945 73.05737305 C12.12803442 89.7361648 11.91459313 106.34450638 11 123 C10.01 123 9.02 123 8 123 C8.03480469 123.93972656 8.03480469 123.93972656 8.0703125 124.8984375 C8.09738281 126.12433594 8.09738281 126.12433594 8.125 127.375 C8.14820313 128.18710938 8.17140625 128.99921875 8.1953125 129.8359375 C8 132 8 132 6 134 C3.875 133.625 3.875 133.625 2 133 C2.33 131.35 2.66 129.7 3 128 C1.68 128 0.36 128 -1 128 C-2.18975795 124.43072615 -2.12478155 121.20053028 -2.09765625 117.48828125 C-2.0962413 116.76005661 -2.09482635 116.03183197 -2.09336853 115.28153992 C-2.08777659 112.95848461 -2.07522562 110.63552612 -2.0625 108.3125 C-2.05748396 106.73632952 -2.05292123 105.16015752 -2.04882812 103.58398438 C-2.0378098 99.72261902 -2.02055074 95.86132592 -2 92 C-1.67 92 -1.34 92 -1 92 C-0.67 98.6 -0.34 105.2 0 112 C0.33 106.72 0.66 101.44 1 96 C1.66 96.33 2.32 96.66 3 97 C3 94.03 3 91.06 3 88 C2.67 90.31 2.34 92.62 2 95 C1.67 95 1.34 95 1 95 C-0.20309566 88.38297385 -1.19260003 80.6306423 0.5 74.05859375 C2.67530888 65.10243923 0.93857683 54.15117734 0.5 45 C-0.21529777 30.00460106 -0.09315434 15.00788067 0 0 Z " fill="#33373C" transform="translate(167,56)"/>
<path d="M0 0 C1.5625 1.25 1.5625 1.25 2.5625 2.25 C4.30405432 2.38701035 6.05095296 2.45668306 7.79736328 2.49951172 C9.47513351 2.54493607 9.47513351 2.54493607 11.1867981 2.59127808 C12.40648285 2.62045319 13.6261676 2.6496283 14.8828125 2.6796875 C17.44532789 2.75337283 20.00782749 2.82760919 22.5703125 2.90234375 C26.62548714 3.01679887 30.6807289 3.12580502 34.73632812 3.22412109 C38.63978121 3.32185044 42.54241654 3.43701303 46.4453125 3.5546875 C47.65285187 3.57981415 48.86039124 3.6049408 50.10452271 3.63082886 C56.31106137 3.83047253 61.07189126 4.26612573 66.5625 7.25 C65.9025 9.23 65.2425 11.21 64.5625 13.25 C42.78662931 13.38625641 21.01450485 13.24874113 -0.75939941 12.93161011 C-3.39778598 12.89418232 -6.03621658 12.8597279 -8.67468262 12.82839966 C-22.70836323 12.65767172 -36.54707293 12.37967362 -50.4375 10.25 C-50.4375 9.26 -50.4375 8.27 -50.4375 7.25 C-51.4275 6.92 -52.4175 6.59 -53.4375 6.25 C-52.7775 6.25 -52.1175 6.25 -51.4375 6.25 C-51.4375 4.6 -51.4375 2.95 -51.4375 1.25 C-50.23738281 1.29600342 -49.03726563 1.34200684 -47.80078125 1.3894043 C-43.32095587 1.55677921 -38.8406367 1.70256022 -34.35986328 1.84204102 C-32.42574469 1.90521899 -30.49180451 1.9741443 -28.55810547 2.04907227 C-25.76818212 2.15615588 -22.97825695 2.24211283 -20.1875 2.32421875 C-19.33196533 2.36157639 -18.47643066 2.39893402 -17.5949707 2.43742371 C-12.06980395 2.57380947 -4.59418415 -1.41359512 0 0 Z " fill="#AEA6A5" transform="translate(108.4375,32.75)"/>
<path d="M0 0 C1.58139267 -0.00043808 1.58139267 -0.00043808 3.19473267 -0.00088501 C6.66848063 0.00050482 10.1420123 0.01604992 13.61572266 0.03173828 C16.02853274 0.03546964 18.44134435 0.03831603 20.85415649 0.04031372 C27.19663699 0.04794048 33.53902551 0.06758087 39.88146973 0.08972168 C46.3566768 0.11020065 52.83189877 0.11931983 59.30712891 0.12939453 C72.00638684 0.15082757 84.7055811 0.18456621 97.40478516 0.22705078 C97.40478516 2.53705078 97.40478516 4.84705078 97.40478516 7.22705078 C91.62843341 9.20660203 86.5091289 9.50213864 80.43041992 9.45410156 C79.45404068 9.45439362 78.47766144 9.45468567 77.47169495 9.45498657 C74.26310154 9.4535997 71.05474396 9.4380687 67.84619141 9.42236328 C65.61417264 9.41863087 63.38215222 9.41578497 61.15013123 9.41378784 C55.28935179 9.40616937 49.42867224 9.38653618 43.56793213 9.36437988 C37.58192292 9.34388298 31.5958975 9.33477791 25.60986328 9.32470703 C13.87479347 9.30328864 2.13979764 9.26917424 -9.59521484 9.22705078 C-9.92521484 10.21705078 -10.25521484 11.20705078 -10.59521484 12.22705078 C-10.92521484 11.23705078 -11.25521484 10.24705078 -11.59521484 9.22705078 C-13.09507094 7.55994732 -13.09507094 7.55994732 -14.59521484 6.22705078 C-14.26521484 5.56705078 -13.93521484 4.90705078 -13.59521484 4.22705078 C-15.24521484 4.22705078 -16.89521484 4.22705078 -18.59521484 4.22705078 C-13.57843873 -0.78972533 -6.60666564 -0.04806757 0 0 Z " fill="#90837C" transform="translate(72.59521484375,183.77294921875)"/>
<path d="M0 0 C2.375 0.6875 2.375 0.6875 3.375 1.6875 C3.375 3.6875 3.375 5.6875 3.375 7.6875 C3.81441523 9.95316343 3.81441523 9.95316343 4.375 11.6875 C6.355 11.6875 8.335 11.6875 10.375 11.6875 C10.375 12.0175 10.375 12.3475 10.375 12.6875 C7.405 12.6875 4.435 12.6875 1.375 12.6875 C1.38660156 13.60144531 1.39820312 14.51539063 1.41015625 15.45703125 C1.52291254 29.2150603 0.9462112 42.94349006 0.375 56.6875 C0.045 56.6875 -0.285 56.6875 -0.625 56.6875 C-0.61976318 55.39013916 -0.61452637 54.09277832 -0.60913086 52.75610352 C-0.59108531 47.96102585 -0.57956963 43.1659512 -0.57006836 38.37084961 C-0.56502712 36.29206844 -0.55819426 34.21329084 -0.54956055 32.13452148 C-0.53748578 29.15347414 -0.53176976 26.17247351 -0.52734375 23.19140625 C-0.52218246 22.25599503 -0.51702118 21.3205838 -0.51170349 20.35682678 C-0.51162796 19.49600998 -0.51155243 18.63519318 -0.51147461 17.74829102 C-0.50814369 16.60578636 -0.50814369 16.60578636 -0.50474548 15.44020081 C-0.43409045 13.65939395 -0.43409045 13.65939395 -1.625 12.6875 C-1.61714478 13.74263794 -1.61714478 13.74263794 -1.60913086 14.8190918 C-1.45424586 39.45364908 -2.00378481 64.06193513 -2.625 88.6875 C-2.955 88.6875 -3.285 88.6875 -3.625 88.6875 C-3.955 78.1275 -4.285 67.5675 -4.625 56.6875 C-4.955 67.2475 -5.285 77.8075 -5.625 88.6875 C-5.955 88.6875 -6.285 88.6875 -6.625 88.6875 C-6.625 70.2075 -6.625 51.7275 -6.625 32.6875 C-7.285 67.0075 -7.945 101.3275 -8.625 136.6875 C-8.955 136.6875 -9.285 136.6875 -9.625 136.6875 C-9.63530746 135.66845078 -9.64561493 134.64940155 -9.65623474 133.59947205 C-9.75453635 123.93558595 -9.8573168 114.27175617 -9.96433926 104.60796261 C-10.01920343 99.64124968 -10.0725594 94.67453062 -10.12231445 89.70776367 C-10.17050355 84.90311314 -10.22285563 80.09852346 -10.27794075 75.29394722 C-10.29812046 73.47261662 -10.31686924 71.65126951 -10.33407402 69.82990837 C-10.42655327 60.14292955 -10.65756782 50.51655488 -11.40440369 40.85604858 C-11.74055947 36.02765456 -11.77158227 31.21302488 -11.75 26.375 C-11.75386719 25.45783203 -11.75773437 24.54066406 -11.76171875 23.59570312 C-11.76042969 22.72236328 -11.75914063 21.84902344 -11.7578125 20.94921875 C-11.75668457 20.17537842 -11.75555664 19.40153809 -11.75439453 18.60424805 C-11.625 16.6875 -11.625 16.6875 -10.625 14.6875 C-11.285 14.6875 -11.945 14.6875 -12.625 14.6875 C-12.625 22.2775 -12.625 29.8675 -12.625 37.6875 C-12.955 37.6875 -13.285 37.6875 -13.625 37.6875 C-13.955 31.7475 -14.285 25.8075 -14.625 19.6875 C-15.945 19.3575 -17.265 19.0275 -18.625 18.6875 C-18.625 19.6775 -18.625 20.6675 -18.625 21.6875 C-20.275 22.0175 -21.925 22.3475 -23.625 22.6875 C-23.625 20.7075 -23.625 18.7275 -23.625 16.6875 C-22.965 16.3575 -22.305 16.0275 -21.625 15.6875 C-20.75126819 13.67602038 -20.75126819 13.67602038 -20.0625 11.3125 C-19.81371094 10.52101563 -19.56492187 9.72953125 -19.30859375 8.9140625 C-18.97021484 7.81191406 -18.97021484 7.81191406 -18.625 6.6875 C-18.295 5.6975 -17.965 4.7075 -17.625 3.6875 C-16.79355469 3.56632812 -15.96210937 3.44515625 -15.10546875 3.3203125 C-14.01878906 3.15273438 -12.93210937 2.98515625 -11.8125 2.8125 C-10.73355469 2.65007813 -9.65460937 2.48765625 -8.54296875 2.3203125 C-5.08271571 1.56989618 -3.54532385 -0.42206236 0 0 Z " fill="#4C505A" transform="translate(53.625,31.3125)"/>
<path d="M0 0 C0.66 0 1.32 0 2 0 C2 0.66 2 1.32 2 2 C2.99 2 3.98 2 5 2 C5.75201631 8.01536222 6.14174489 13.85831637 6.11352539 19.91625977 C6.11367142 20.75638107 6.11381744 21.59650238 6.1139679 22.46208191 C6.11327803 25.20521742 6.10552954 27.94828278 6.09765625 30.69140625 C6.09578877 32.60668399 6.09436643 34.52196221 6.09336853 36.4372406 C6.0895693 41.45294538 6.07976144 46.46862073 6.06866455 51.48431396 C6.05839438 56.61258547 6.05385895 61.74086178 6.04882812 66.86914062 C6.03813661 76.91277327 6.02109169 86.95638418 6 97 C4.35 96.67 2.7 96.34 1 96 C0.67 93.03 0.34 90.06 0 87 C-0.99 87 -1.98 87 -3 87 C-3 77.76 -3 68.52 -3 59 C-2.34 59 -1.68 59 -1 59 C-1 58.34 -1 57.68 -1 57 C-1.66 57 -2.32 57 -3 57 C-3 52.38 -3 47.76 -3 43 C-2.34 43 -1.68 43 -1 43 C-1 42.34 -1 41.68 -1 41 C-1.66 41 -2.32 41 -3 41 C-3 28.13 -3 15.26 -3 2 C-2.01 2 -1.02 2 0 2 C0 1.34 0 0.68 0 0 Z " fill="#1B1F26" transform="translate(35,93)"/>
<path d="M0 0 C0.33 0 0.66 0 1 0 C1 36.63 1 73.26 1 111 C1.33 82.95 1.66 54.9 2 26 C2.33 26 2.66 26 3 26 C3.13205719 37.05925849 3.26254437 48.11853437 3.39115143 59.17783356 C3.45094716 64.31583039 3.51123797 69.45382032 3.57275391 74.59179688 C4.09501517 118.26851711 4.09501517 118.26851711 4 138 C0.7 138 -2.6 138 -6 138 C-6 101.04 -6 64.08 -6 26 C-5.34 26.99 -4.68 27.98 -4 29 C-3.67 20.09 -3.34 11.18 -3 2 C-2.67 2 -2.34 2 -2 2 C-1.67 11.57 -1.34 21.14 -1 31 C-0.67 20.77 -0.34 10.54 0 0 Z " fill="#3B3C44" transform="translate(63,46)"/>
<path d="M0 0 C0.33 0 0.66 0 1 0 C1.33 18.48 1.66 36.96 2 56 C2.66 55.34 3.32 54.68 4 54 C5.3713694 56.74273881 5.15512704 58.96862445 5.18945312 62.03857422 C5.21452942 63.94097366 5.21452942 63.94097366 5.2401123 65.88180542 C5.24679428 66.56158321 5.25347626 67.24136101 5.26036072 67.94173813 C5.28138744 70.06858987 5.30841199 72.19528983 5.33703613 74.322052 C5.39675263 78.8396429 5.4488721 83.35730483 5.5 87.875 C5.55926687 93.10297628 5.62164161 98.33087828 5.69187927 103.55871964 C5.71840627 105.65255601 5.73925226 107.74639999 5.7598877 109.84030151 C5.77660522 111.11487213 5.79332275 112.38944275 5.81054688 113.70263672 C5.82307495 114.82467499 5.83560303 115.94671326 5.84851074 117.10275269 C5.97861443 119.59099891 6.34385042 121.61722417 7 124 C7.06743348 126.08234592 7.08514472 128.16668557 7.0625 130.25 C7.05347656 131.32765625 7.04445313 132.4053125 7.03515625 133.515625 C7.02355469 134.33546875 7.01195313 135.1553125 7 136 C4.03 136 1.06 136 -2 136 C-2.81575469 106.99731715 -3.0930072 78.01234577 -3.0625 49 C-3.06164398 48.18012604 -3.06078796 47.36025208 -3.05990601 46.51553345 C-3.04849821 36.34366612 -3.02839676 26.17183455 -3 16 C-2.67 16 -2.34 16 -2 16 C-2 29.2 -2 42.4 -2 56 C-1.34 56 -0.68 56 0 56 C0 37.52 0 19.04 0 0 Z " fill="#3B3C41" transform="translate(94,48)"/>
<path d="M0 0 C0.66 0 1.32 0 2 0 C2 34.98 2 69.96 2 106 C1.34 106 0.68 106 0 106 C-0.33 87.19 -0.66 68.38 -1 49 C-1.99 49 -2.98 49 -4 49 C-4 48.34 -4 47.68 -4 47 C-4.66 47 -5.32 47 -6 47 C-6 47.66 -6 48.32 -6 49 C-6.99 49 -7.98 49 -9 49 C-9 61.87 -9 74.74 -9 88 C-8.34 88 -7.68 88 -7 88 C-7 88.66 -7 89.32 -7 90 C-7.66 90 -8.32 90 -9 90 C-9 94.62 -9 99.24 -9 104 C-8.34 104 -7.68 104 -7 104 C-7 104.66 -7 105.32 -7 106 C-7.66 106 -8.32 106 -9 106 C-9 111.28 -9 116.56 -9 122 C-9.33 122 -9.66 122 -10 122 C-10 84.38 -10 46.76 -10 8 C-8.68 7.67 -7.36 7.34 -6 7 C-6 6.01 -6 5.02 -6 4 C-4.0625 4.375 -4.0625 4.375 -2 5 C-1.67 5.66 -1.34 6.32 -1 7 C-0.67 4.69 -0.34 2.38 0 0 Z " fill="#434751" transform="translate(41,46)"/>
<path d="M0 0 C9.57 0 19.14 0 29 0 C29 0.33 29 0.66 29 1 C22.565 1.495 22.565 1.495 16 2 C16.16226074 3.27649414 16.32452148 4.55298828 16.49169922 5.86816406 C17.05506993 10.96073717 17.14460958 15.98991098 17.1328125 21.109375 C17.13424759 22.50413055 17.13424759 22.50413055 17.13571167 23.92706299 C17.13638755 25.87666899 17.13457491 27.82627732 17.13037109 29.77587891 C17.12498991 32.75558502 17.13034873 35.7351421 17.13671875 38.71484375 C17.13605834 40.61718783 17.13477794 42.51953182 17.1328125 44.421875 C17.13483673 45.30840759 17.13686096 46.19494019 17.13894653 47.1083374 C17.1234256 51.20239344 17.03259695 55.00701834 16 59 C15.67 59 15.34 59 15 59 C14.67 49.43 14.34 39.86 14 30 C13.34 29.67 12.68 29.34 12 29 C11.67 38.9 11.34 48.8 11 59 C10.34 59 9.68 59 9 59 C7.06011224 55.71872118 6.7058014 53.15128783 6.5859375 49.36328125 C6.54726562 48.23962158 6.50859375 47.11596191 6.46875 45.95825195 C6.4378125 44.75515381 6.406875 43.55205566 6.375 42.3125 C6.33632812 41.07910889 6.29765625 39.84571777 6.2578125 38.57495117 C5.98121595 28.90209808 5.9277472 19.23384731 6.03662109 9.55786133 C6.04516113 8.5758374 6.05370117 7.59381348 6.0625 6.58203125 C6.07990234 5.28616089 6.07990234 5.28616089 6.09765625 3.96411133 C6.22005394 1.99634722 6.22005394 1.99634722 5 1 C5 17.83 5 34.66 5 52 C4.67 52 4.34 52 4 52 C3.67 41.11 3.34 30.22 3 19 C2.67 30.88 2.34 42.76 2 55 C1.67 55 1.34 55 1 55 C0.21324629 36.64311084 -0.09774608 18.37626234 0 0 Z " fill="#53545E" transform="translate(106,45)"/>
<path d="M0 0 C0.66 0 1.32 0 2 0 C2.1953125 2.05078125 2.390625 4.1015625 2.5859375 6.15234375 C2.72257813 6.76207031 2.85921875 7.37179688 3 8 C3.66 8.33 4.32 8.66 5 9 C5 13.29 5 17.58 5 22 C4.34 22 3.68 22 3 22 C3 22.66 3 23.32 3 24 C3.66 24 4.32 24 5 24 C5 32.91 5 41.82 5 51 C4.01 51 3.02 51 2 51 C2.02320313 51.62648437 2.04640625 52.25296875 2.0703125 52.8984375 C2.09738281 54.12433594 2.09738281 54.12433594 2.125 55.375 C2.14820313 56.18710938 2.17140625 56.99921875 2.1953125 57.8359375 C2 60 2 60 0 62 C-2.125 61.625 -2.125 61.625 -4 61 C-3.67 59.35 -3.34 57.7 -3 56 C-4.32 56 -5.64 56 -7 56 C-8.18975795 52.43072615 -8.12478155 49.20053028 -8.09765625 45.48828125 C-8.0962413 44.76005661 -8.09482635 44.03183197 -8.09336853 43.28153992 C-8.08777659 40.95848461 -8.07522562 38.63552612 -8.0625 36.3125 C-8.05748396 34.73632952 -8.05292123 33.16015752 -8.04882812 31.58398438 C-8.0378098 27.72261902 -8.02055074 23.86132592 -8 20 C-7.67 20 -7.34 20 -7 20 C-6.67 26.6 -6.34 33.2 -6 40 C-5.67 34.72 -5.34 29.44 -5 24 C-4.01 24 -3.02 24 -2 24 C-1.96241577 23.06933716 -1.96241577 23.06933716 -1.92407227 22.11987305 C-1.80803279 19.30887603 -1.68534241 16.49820759 -1.5625 13.6875 C-1.52318359 12.71103516 -1.48386719 11.73457031 -1.44335938 10.72851562 C-1.40146484 9.79072266 -1.35957031 8.85292969 -1.31640625 7.88671875 C-1.26141968 6.59060669 -1.26141968 6.59060669 -1.20532227 5.26831055 C-1 3 -1 3 0 0 Z " fill="#262A2D" transform="translate(173,128)"/>
<path d="M0 0 C2.31 0 4.62 0 7 0 C7.01030746 0.69713104 7.02061493 1.39426208 7.03123474 2.11251831 C7.12912453 8.67537866 7.23162674 15.23814875 7.33933926 21.80085564 C7.39455469 25.17498367 7.44797243 28.5491204 7.49731445 31.92333984 C7.55489667 35.80054266 7.61862566 39.6776023 7.68359375 43.5546875 C7.70030624 44.76929657 7.71701874 45.98390564 7.73423767 47.23532104 C7.75418289 48.35633209 7.77412811 49.47734314 7.79467773 50.63232422 C7.81022202 51.62271698 7.8257663 52.61310974 7.84178162 53.6335144 C7.84807978 56.01828543 7.84807978 56.01828543 9 58 C9.09182083 60.1547893 9.11750462 62.31249718 9.11352539 64.46923828 C9.11367142 65.13277313 9.11381744 65.79630798 9.1139679 66.47994995 C9.11327031 68.67677053 9.10548514 70.8735067 9.09765625 73.0703125 C9.09579152 74.59203037 9.09436788 76.11374884 9.09336853 77.63546753 C9.08954767 81.64351047 9.07972104 85.65151726 9.06866455 89.6595459 C9.05844118 93.74828604 9.05386892 97.83703201 9.04882812 101.92578125 C9.0380984 109.95053744 9.02102713 117.97526422 9 126 C6.87326094 122.5184126 6.72888955 119.71264865 6.68115234 115.67089844 C6.65134781 113.74935944 6.65134781 113.74935944 6.62094116 111.78900146 C6.60906564 110.3957944 6.59740273 109.0025855 6.5859375 107.609375 C6.56722168 106.1801848 6.54764795 104.75100559 6.5272522 103.32183838 C6.47596852 99.56708264 6.43632284 95.81229108 6.39910889 92.05737305 C6.35904551 88.2230547 6.30796385 84.38888483 6.2578125 80.5546875 C6.16109785 73.03656028 6.07667899 65.5183611 6 58 C4.515 58.495 4.515 58.495 3 59 C2.01 58.67 1.02 58.34 0 58 C0 38.86 0 19.72 0 0 Z " fill="#4B4C54" transform="translate(92,46)"/>
<path d="M0 0 C0.66 0 1.32 0 2 0 C2.33 2.64 2.66 5.28 3 8 C3.33 8 3.66 8 4 8 C4.98620598 20.85698911 5.21018367 33.67247514 5.31640625 46.5625 C5.33703019 48.6919795 5.35802785 50.82145541 5.37937927 52.95092773 C5.43403927 58.50078384 5.4836909 64.05067335 5.53222656 69.60058594 C5.58285649 75.28583681 5.63832385 80.97104038 5.69335938 86.65625 C5.80025289 97.77079273 5.90184461 108.8853769 6 120 C4.35 120 2.7 120 1 120 C0.86641285 110.26016528 0.73591052 100.52029465 0.60884857 90.78037262 C0.54969592 86.25265035 0.48966428 81.72494415 0.42724609 77.19726562 C0.07335342 51.46335782 -0.06812705 25.73630157 0 0 Z " fill="#3B3C43" transform="translate(76,64)"/>
<path d="M0 0 C1.58139267 -0.00043808 1.58139267 -0.00043808 3.19473267 -0.00088501 C6.66848063 0.00050482 10.1420123 0.01604992 13.61572266 0.03173828 C16.02853274 0.03546964 18.44134435 0.03831603 20.85415649 0.04031372 C27.19663699 0.04794048 33.53902551 0.06758087 39.88146973 0.08972168 C46.3566768 0.11020065 52.83189877 0.11931983 59.30712891 0.12939453 C72.00638684 0.15082757 84.7055811 0.18456621 97.40478516 0.22705078 C97.07478516 1.54705078 96.74478516 2.86705078 96.40478516 4.22705078 C67.03478516 3.89705078 37.66478516 3.56705078 7.40478516 3.22705078 C7.40478516 3.88705078 7.40478516 4.54705078 7.40478516 5.22705078 C6.78990234 5.26443359 6.17501953 5.30181641 5.54150391 5.34033203 C4.73326172 5.40607422 3.92501953 5.47181641 3.09228516 5.53955078 C2.29177734 5.59755859 1.49126953 5.65556641 0.66650391 5.71533203 C-1.9920791 6.31684218 -2.77186065 7.27937699 -4.59521484 9.22705078 C-7.28271484 9.41455078 -7.28271484 9.41455078 -9.59521484 9.22705078 C-9.92521484 10.21705078 -10.25521484 11.20705078 -10.59521484 12.22705078 C-10.92521484 11.23705078 -11.25521484 10.24705078 -11.59521484 9.22705078 C-13.09507094 7.55994732 -13.09507094 7.55994732 -14.59521484 6.22705078 C-14.26521484 5.56705078 -13.93521484 4.90705078 -13.59521484 4.22705078 C-15.24521484 4.22705078 -16.89521484 4.22705078 -18.59521484 4.22705078 C-13.57843873 -0.78972533 -6.60666564 -0.04806757 0 0 Z " fill="#837A76" transform="translate(72.59521484375,183.77294921875)"/>
<path d="M0 0 C0.17179535 13.99994025 0.33826897 27.99993981 0.5 42 C0.51187725 43.02786369 0.5237545 44.05572739 0.53599167 45.11473846 C0.89218465 76.0776485 1.1650061 107.03470173 1 138 C0.34 138 -0.32 138 -1 138 C-1 113.25 -1 88.5 -1 63 C-1.66 63 -2.32 63 -3 63 C-3 80.16 -3 97.32 -3 115 C-3.33 115 -3.66 115 -4 115 C-4.81050317 76.99007256 -5.14369397 39.01829619 -5 1 C-2 0 -2 0 0 0 Z " fill="#4F5058" transform="translate(91,46)"/>
<path d="M0 0 C2.375 0.6875 2.375 0.6875 3.375 1.6875 C3.375 3.6875 3.375 5.6875 3.375 7.6875 C3.81441523 9.95316343 3.81441523 9.95316343 4.375 11.6875 C6.355 11.6875 8.335 11.6875 10.375 11.6875 C10.375 12.0175 10.375 12.3475 10.375 12.6875 C7.405 12.6875 4.435 12.6875 1.375 12.6875 C1.38660156 13.60144531 1.39820312 14.51539063 1.41015625 15.45703125 C1.52291254 29.2150603 0.9462112 42.94349006 0.375 56.6875 C0.045 56.6875 -0.285 56.6875 -0.625 56.6875 C-0.61976318 55.39013916 -0.61452637 54.09277832 -0.60913086 52.75610352 C-0.59108531 47.96102585 -0.57956963 43.1659512 -0.57006836 38.37084961 C-0.56502712 36.29206844 -0.55819426 34.21329084 -0.54956055 32.13452148 C-0.53748578 29.15347414 -0.53176976 26.17247351 -0.52734375 23.19140625 C-0.52218246 22.25599503 -0.51702118 21.3205838 -0.51170349 20.35682678 C-0.51162796 19.49600998 -0.51155243 18.63519318 -0.51147461 17.74829102 C-0.50814369 16.60578636 -0.50814369 16.60578636 -0.50474548 15.44020081 C-0.43409045 13.65939395 -0.43409045 13.65939395 -1.625 12.6875 C-1.61714478 13.74263794 -1.61714478 13.74263794 -1.60913086 14.8190918 C-1.45424586 39.45364908 -2.00378481 64.06193513 -2.625 88.6875 C-2.955 88.6875 -3.285 88.6875 -3.625 88.6875 C-3.625 64.2675 -3.625 39.8475 -3.625 14.6875 C-4.615 15.1825 -4.615 15.1825 -5.625 15.6875 C-5.625 14.6975 -5.625 13.7075 -5.625 12.6875 C-8.265 12.6875 -10.905 12.6875 -13.625 12.6875 C-13.955 11.0375 -14.285 9.3875 -14.625 7.6875 C-15.945 7.3575 -17.265 7.0275 -18.625 6.6875 C-18.295 5.6975 -17.965 4.7075 -17.625 3.6875 C-16.79355469 3.56632812 -15.96210937 3.44515625 -15.10546875 3.3203125 C-14.01878906 3.15273438 -12.93210937 2.98515625 -11.8125 2.8125 C-10.73355469 2.65007813 -9.65460937 2.48765625 -8.54296875 2.3203125 C-5.08271571 1.56989618 -3.54532385 -0.42206236 0 0 Z " fill="#595B65" transform="translate(53.625,31.3125)"/>
<path d="M0 0 C6.70768928 -0.07628074 13.41526601 -0.12869663 20.12329102 -0.16479492 C22.40360698 -0.17984918 24.68389414 -0.20029708 26.96411133 -0.22631836 C30.24828209 -0.26284894 33.53206885 -0.27976039 36.81640625 -0.29296875 C37.83021866 -0.30845261 38.84403107 -0.32393646 39.88856506 -0.33988953 C45.72514519 -0.34126649 49.82025737 0.26001412 55 3 C54.34 4.98 53.68 6.96 53 9 C40.46 9 27.92 9 15 9 C15 8.67 15 8.34 15 8 C16.32 7.67 17.64 7.34 19 7 C15.04 7 11.08 7 7 7 C7.33 5.35 7.66 3.7 8 2 C5.36 1.67 2.72 1.34 0 1 C0 0.67 0 0.34 0 0 Z " fill="#A39A95" transform="translate(120,37)"/>
<path d="M0 0 C0.66 1.32 1.32 2.64 2 4 C2.66 3.01 3.32 2.02 4 1 C4.33 2.32 4.66 3.64 5 5 C5.66 3.68 6.32 2.36 7 1 C8.30357421 5.67484111 8.3687447 10.2966338 8.5625 15.125 C8.6049585 16.14658203 8.64741699 17.16816406 8.69116211 18.22070312 C9.2366664 33.13920283 9.08643688 48.07434487 9 63 C8.67 63 8.34 63 8 63 C7.67 57.39 7.34 51.78 7 46 C6.67 51.28 6.34 56.56 6 62 C5.67 62 5.34 62 5 62 C4.67 55.07 4.34 48.14 4 41 C3.13470564 59.44022276 2.71999145 77.86022945 2.46777344 96.31591797 C2.41645994 100.01793874 2.36136275 103.71990332 2.30664062 107.421875 C2.20084888 114.61453506 2.09904992 121.80724359 2 129 C1.67 129 1.34 129 1 129 C1.00222061 127.95082397 1.00444122 126.90164795 1.00672913 125.82067871 C1.0272047 115.82117862 1.04208774 105.82168291 1.05181217 95.82216644 C1.05698 90.68416962 1.06396335 85.54619003 1.07543945 80.40820312 C1.20748999 51.00642061 1.20748999 51.00642061 0.22265625 21.62695312 C-0.16756782 14.4234043 -0.08817912 7.21109209 0 0 Z " fill="#4A4D55" transform="translate(141,47)"/>
<path d="M0 0 C0.66 0 1.32 0 2 0 C2 0.66 2 1.32 2 2 C2.99 2 3.98 2 5 2 C6.02053979 9.56495371 6.1499809 16.99749845 6.125 24.625 C6.12886719 25.81351563 6.13273437 27.00203125 6.13671875 28.2265625 C6.13036502 33.91950668 6.03537741 39.39581432 5 45 C4.34 45 3.68 45 3 45 C3 44.34 3 43.68 3 43 C0.03 43.495 0.03 43.495 -3 44 C-2.01 43.505 -2.01 43.505 -1 43 C-1 42.34 -1 41.68 -1 41 C-1.66 41 -2.32 41 -3 41 C-3 28.13 -3 15.26 -3 2 C-2.01 2 -1.02 2 0 2 C0 1.34 0 0.68 0 0 Z " fill="#272E37" transform="translate(35,93)"/>
<path d="M0 0 C0.33 0 0.66 0 1 0 C1.33 2.31 1.66 4.62 2 7 C2.33 5.02 2.66 3.04 3 1 C3.33 1 3.66 1 4 1 C5.79923412 24.0335464 6.25377322 46.90273287 6 70 C5.67 70 5.34 70 5 70 C4.67 61.09 4.34 52.18 4 43 C3.67 47.62 3.34 52.24 3 57 C2.67 57 2.34 57 2 57 C1.67 54.36 1.34 51.72 1 49 C0.67 54.28 0.34 59.56 0 65 C-0.33 65 -0.66 65 -1 65 C-2.23093736 43.65665928 -3.40502568 22.38847159 -3 1 C-2.67 1 -2.34 1 -2 1 C-1.67 3.64 -1.34 6.28 -1 9 C-1.020625 7.700625 -1.04125 6.40125 -1.0625 5.0625 C-1.08399454 3.70834367 -1.07148199 2.35243917 -1 1 C-0.67 0.67 -0.34 0.34 0 0 Z " fill="#4A4D55" transform="translate(153,47)"/>
<path d="M0 0 C0.33 0 0.66 0 1 0 C1.13191131 12.10233215 1.26239319 24.20467885 1.39115143 36.30704498 C1.45101004 41.92931358 1.51132377 47.55157646 1.57275391 53.17382812 C1.63224612 58.62036483 1.69044329 64.0669141 1.74781799 69.51347351 C1.76969701 71.57021052 1.79200857 73.62694299 1.81480408 75.68367004 C1.97812438 90.45627663 2.02798323 105.22651303 2 120 C0.35 120 -1.3 120 -3 120 C-3 83.04 -3 46.08 -3 8 C-2.67 8 -2.34 8 -2 8 C-1.67 39.68 -1.34 71.36 -1 104 C-0.67 69.68 -0.34 35.36 0 0 Z " fill="#33353B" transform="translate(71,64)"/>
<path d="M0 0 C0.66 0.33 1.32 0.66 2 1 C2 3.97 2 6.94 2 10 C2.99 10 3.98 10 5 10 C4.67 32.11 4.34 54.22 4 77 C3.67 77 3.34 77 3 77 C3 70.07 3 63.14 3 56 C2.34 56 1.68 56 1 56 C1 55.01 1 54.02 1 53 C1.66 53 2.32 53 3 53 C3 49.7 3 46.4 3 43 C1.79438816 43.98267859 1.79438816 43.98267859 1.90234375 45.84765625 C1.91394531 46.57855469 1.92554688 47.30945313 1.9375 48.0625 C1.958125 49.361875 1.97875 50.66125 2 52 C0 51 0 51 -0.625 49.4375 C-1.16368951 45.93601819 -1.05903219 42.54193167 -1 39 C-1.66 39 -2.32 39 -3 39 C-3.0582253 35.91674642 -3.09367134 32.83363495 -3.125 29.75 C-3.14175781 28.87730469 -3.15851563 28.00460938 -3.17578125 27.10546875 C-3.18222656 26.26113281 -3.18867188 25.41679688 -3.1953125 24.546875 C-3.20578613 23.77182617 -3.21625977 22.99677734 -3.22705078 22.19824219 C-2.97326556 19.74116461 -2.22444152 18.12688458 -1 16 C-0.34 16 0.32 16 1 16 C0.67 10.72 0.34 5.44 0 0 Z " fill="#2D343A" transform="translate(176,41)"/>
<path d="M0 0 C2.33294775 -0.04241723 4.66702567 -0.04092937 7 0 C11.54476603 4.54476603 9.1698234 23.81780738 9.18554688 30.39453125 C9.18542603 31.49788818 9.18542603 31.49788818 9.18530273 32.62353516 C9.18754623 34.92237423 9.20596556 37.22077292 9.22460938 39.51953125 C9.2275345 40.98958172 9.22952517 42.45963442 9.23046875 43.9296875 C9.23457764 45.24179199 9.23868652 46.55389648 9.24291992 47.90576172 C9 51 9 51 7 53 C6.67 45.74 6.34 38.48 6 31 C3.6031335 33.3968665 3.71718867 34.07028314 3.5859375 37.3515625 C3.54726562 38.20234375 3.50859375 39.053125 3.46875 39.9296875 C3.4378125 40.81914063 3.406875 41.70859375 3.375 42.625 C3.33632812 43.5221875 3.29765625 44.419375 3.2578125 45.34375 C3.16340643 47.5622927 3.07783252 49.78082403 3 52 C0.85762657 48.78643985 0.7383475 47.86952936 0.68115234 44.16137695 C0.66128265 43.1805867 0.64141296 42.19979645 0.62094116 41.18928528 C0.60938995 40.13295395 0.59783875 39.07662262 0.5859375 37.98828125 C0.56657135 36.90491989 0.5472052 35.82155853 0.5272522 34.70536804 C0.46741656 31.24115907 0.4210547 27.77691695 0.375 24.3125 C0.33682393 21.96548021 0.29777242 19.61847448 0.2578125 17.27148438 C0.16171176 11.51444766 0.07667587 5.75732641 0 0 Z " fill="#4E505A" transform="translate(123,47)"/>
<path d="M0 0 C19.8 0.495 19.8 0.495 40 1 C40 1.33 40 1.66 40 2 C37.03 2 34.06 2 31 2 C31 2.66 31 3.32 31 4 C30.34 4 29.68 4 29 4 C29 4.66 29 5.32 29 6 C28.360625 6.28875 27.72125 6.5775 27.0625 6.875 C24.84793921 7.82823451 24.84793921 7.82823451 24 10 C21.2915983 10.02714434 18.58347279 10.04690846 15.875 10.0625 C14.73417969 10.07506836 14.73417969 10.07506836 13.5703125 10.08789062 C9.2610356 10.10646509 5.24483526 9.86117265 1 9 C1 8.01 1 7.02 1 6 C0.01 5.67 -0.98 5.34 -2 5 C-1.34 5 -0.68 5 0 5 C0 3.35 0 1.7 0 0 Z " fill="#ABA5A2" transform="translate(57,34)"/>
<path d="M0 0 C0.33 0 0.66 0 1 0 C1.33 11.88 1.66 23.76 2 36 C2.33 36 2.66 36 3 36 C3.33 57.12 3.66 78.24 4 100 C2.02 100 0.04 100 -2 100 C-2 89.44 -2 78.88 -2 68 C-1.34 68 -0.68 68 0 68 C0 45.56 0 23.12 0 0 Z " fill="#373A3F" transform="translate(43,84)"/>
<path d="M0 0 C1.32 0.33 2.64 0.66 4 1 C4 25.75 4 50.5 4 76 C2.68 76 1.36 76 0 76 C0 50.92 0 25.84 0 0 Z " fill="#38383D" transform="translate(86,108)"/>
<path d="M0 0 C0.66 0 1.32 0 2 0 C3.50156874 3.00313748 3.09281204 5.79067522 3.0625 9.125 C3.05347656 10.40632813 3.04445312 11.68765625 3.03515625 13.0078125 C3.02355469 13.99523438 3.01195312 14.98265625 3 16 C2.34 16.33 1.68 16.66 1 17 C-0.22318866 20.66956597 -0.23116124 24.12321003 -0.31640625 27.94921875 C-0.33718735 28.72183548 -0.35796844 29.49445221 -0.37937927 30.29048157 C-0.44471038 32.7560648 -0.50368315 35.22175361 -0.5625 37.6875 C-0.60570087 39.36003691 -0.64931566 41.03256319 -0.69335938 42.70507812 C-0.8003749 46.8032775 -0.90168857 50.90158296 -1 55 C-1.33 55 -1.66 55 -2 55 C-2.33 47.08 -2.66 39.16 -3 31 C-3.33 38.92 -3.66 46.84 -4 55 C-4.33 55 -4.66 55 -5 55 C-5.28811915 49.48665612 -5.57282042 43.97314969 -5.85449219 38.45947266 C-5.95058074 36.58768058 -6.04756831 34.71593442 -6.14550781 32.84423828 C-6.28692955 30.13846515 -6.42501006 27.43253794 -6.5625 24.7265625 C-6.60624756 23.90322418 -6.64999512 23.07988586 -6.69506836 22.2315979 C-6.98273902 16.48361099 -7.04795992 10.75471422 -7 5 C-5.02 5 -3.04 5 -1 5 C-0.67 3.35 -0.34 1.7 0 0 Z " fill="#3E444C" transform="translate(174,41)"/>
<path d="M0 0 C2.45391569 3.68087353 2.22802759 6.44355588 2.125 10.6875 C2.11597656 11.38939453 2.10695313 12.09128906 2.09765625 12.81445312 C2.07413704 14.54311525 2.03826713 16.27160145 2 18 C1.01 18 0.02 18 -1 18 C-1 17.34 -1 16.68 -1 16 C-1.66 16 -2.32 16 -3 16 C-3 16.66 -3 17.32 -3 18 C-3.99 18 -4.98 18 -6 18 C-6 30.87 -6 43.74 -6 57 C-5.34 57 -4.68 57 -4 57 C-4 57.66 -4 58.32 -4 59 C-4.66 59 -5.32 59 -6 59 C-6 63.62 -6 68.24 -6 73 C-5.34 73 -4.68 73 -4 73 C-4 73.66 -4 74.32 -4 75 C-4.66 75 -5.32 75 -6 75 C-6 80.28 -6 85.56 -6 91 C-6.33 91 -6.66 91 -7 91 C-7.0694394 79.7084605 -7.12278043 68.4169716 -7.15543652 57.12526226 C-7.17110796 51.88234109 -7.19237325 46.63956575 -7.22631836 41.39672852 C-7.25885901 36.33929316 -7.27684187 31.28199827 -7.28463173 26.22446632 C-7.29018476 24.2927002 -7.30102819 22.36094196 -7.31719017 20.42923546 C-7.33889413 17.72828796 -7.34196989 15.02792464 -7.34057617 12.3269043 C-7.351362 11.52417587 -7.36214783 10.72144745 -7.3732605 9.89439392 C-7.3429839 4.48985551 -7.3429839 4.48985551 -5.61543274 2.02253723 C-3.76711731 0.85258983 -2.14807969 0.37035857 0 0 Z " fill="#5E6269" transform="translate(38,77)"/>
<path d="M0 0 C1.9375 0.375 1.9375 0.375 4 1 C5.27861615 3.55723229 5.11336609 5.36737102 5.09765625 8.2265625 C5.09443359 9.2578125 5.09121094 10.2890625 5.08789062 11.3515625 C5.07951172 12.43179688 5.07113281 13.51203125 5.0625 14.625 C5.05798828 15.71296875 5.05347656 16.8009375 5.04882812 17.921875 C5.03701776 20.61463789 5.02054778 23.30729188 5 26 C2.03 26.33 -0.94 26.66 -4 27 C-4 19.41 -4 11.82 -4 4 C-2.68 3.67 -1.36 3.34 0 3 C0 2.01 0 1.02 0 0 Z " fill="#343B47" transform="translate(35,50)"/>
<path d="M0 0 C6.93 0 13.86 0 21 0 C18 2 18 2 15 3 C15.99 3.33 16.98 3.66 18 4 C18 4.99 18 5.98 18 7 C18.99 7.66 19.98 8.32 21 9 C21.3125 11.5 21.3125 11.5 21 14 C20.34 14.66 19.68 15.32 19 16 C15.875 15.625 15.875 15.625 13 15 C12.67 13.02 12.34 11.04 12 9 C11.01 9.04125 10.02 9.0825 9 9.125 C4.76164134 9.1423348 1.06806015 8.14191162 -3 7 C-2.34 6.01 -1.68 5.02 -1 4 C-0.67 2.68 -0.34 1.36 0 0 Z " fill="#6D6965" transform="translate(41,184)"/>
<path d="M0 0 C2 1 2 1 3 2 C5.44608998 2.15980437 7.86731058 2.25929447 10.31640625 2.31640625 C11.04746078 2.33718735 11.77851532 2.35796844 12.53172302 2.37937927 C14.87521656 2.44495024 17.21882539 2.50379432 19.5625 2.5625 C21.14779855 2.60567808 22.73308529 2.64929213 24.31835938 2.69335938 C28.21212037 2.8006392 32.10599772 2.9018849 36 3 C36 3.33 36 3.66 36 4 C28.08 4.495 28.08 4.495 20 5 C20 5.99 20 6.98 20 8 C19.67 8.99 19.34 9.98 19 11 C19.71542969 10.83757813 20.43085938 10.67515625 21.16796875 10.5078125 C28.38461574 9.21379304 35.79670394 9.91271003 43 11 C43 11.33 43 11.66 43 12 C29.8 12 16.6 12 3 12 C2.67 10.35 2.34 8.7 2 7 C1.01 6.34 0.02 5.68 -1 5 C-0.67 3.35 -0.34 1.7 0 0 Z " fill="#B1A8A4" transform="translate(108,33)"/>
<path d="M0 0 C2.475 0.495 2.475 0.495 5 1 C6.90805714 28.64044346 8.32146873 56.2822515 8 84 C5.77680382 80.66520573 5.71232024 79.42732184 5.58935547 75.51879883 C5.54946503 74.39786331 5.50957458 73.2769278 5.46847534 72.12202454 C5.41833786 70.30785286 5.41833786 70.30785286 5.3671875 68.45703125 C5.32562531 67.21829758 5.28406311 65.9795639 5.24124146 64.70329285 C5.13256811 61.41387027 5.03208561 58.12433055 4.93554688 54.83453369 C4.83498208 51.4760546 4.7236806 48.11793327 4.61328125 44.75976562 C4.39894601 38.17346221 4.19540401 31.58689077 4 25 C3.67 26.98 3.34 28.96 3 31 C0.20822431 28.20822431 0.68786516 26.36816428 0.5859375 22.4609375 C0.54726562 21.15898438 0.50859375 19.85703125 0.46875 18.515625 C0.43729237 17.13542138 0.40604509 15.75521296 0.375 14.375 C0.33682066 12.98695459 0.29776895 11.59893289 0.2578125 10.2109375 C0.16327057 6.80742815 0.07772103 3.40392835 0 0 Z " fill="#41434A" transform="translate(158,47)"/>
<path d="M0 0 C1.32 0 2.64 0 4 0 C4 17.82 4 35.64 4 54 C3.67 54 3.34 54 3 54 C2.67 50.04 2.34 46.08 2 42 C1.67 47.28 1.34 52.56 1 58 C0.67 58 0.34 58 0 58 C0 38.86 0 19.72 0 0 Z " fill="#52545F" transform="translate(78,46)"/>
<path d="M0 0 C1.32 0.33 2.64 0.66 4 1 C4 19.81 4 38.62 4 58 C2.68 58 1.36 58 0 58 C0 38.86 0 19.72 0 0 Z " fill="#5A5D66" transform="translate(92,46)"/>
<path d="M0 0 C0.33 0 0.66 0 1 0 C1.66 21.45 2.32 42.9 3 65 C3.66 63.68 4.32 62.36 5 61 C5 65.95 5 70.9 5 76 C3.35 76 1.7 76 0 76 C0 50.92 0 25.84 0 0 Z " fill="#343437" transform="translate(131,107)"/>
<path d="M0 0 C0.33 0 0.66 0 1 0 C1.1953125 2.05078125 1.390625 4.1015625 1.5859375 6.15234375 C1.72257812 6.76207031 1.85921875 7.37179688 2 8 C2.66 8.33 3.32 8.66 4 9 C4.66 8.01 5.32 7.02 6 6 C7.32 6 8.64 6 10 6 C10.0270491 9.06255961 10.04686298 12.1248786 10.0625 15.1875 C10.07087891 16.05181641 10.07925781 16.91613281 10.08789062 17.80664062 C10.10396812 22.00286769 10.07559038 25.90936886 9 30 C8.67 30 8.34 30 8 30 C7.97105453 26.54168414 7.95322 23.08339928 7.9375 19.625 C7.92912109 18.64015625 7.92074219 17.6553125 7.91210938 16.640625 C7.90888672 15.69960938 7.90566406 14.75859375 7.90234375 13.7890625 C7.89710693 12.91975098 7.89187012 12.05043945 7.88647461 11.15478516 C8 9 8 9 9 7 C8.34 7 7.68 7 7 7 C7 14.59 7 22.18 7 30 C6.67 30 6.34 30 6 30 C5.67 24.06 5.34 18.12 5 12 C3.68 11.67 2.36 11.34 1 11 C1 11.99 1 12.98 1 14 C-0.65 14.33 -2.3 14.66 -4 15 C-4 13.02 -4 11.04 -4 9 C-3.34 8.67 -2.68 8.34 -2 8 C-1.31527335 6.11235097 -1.31527335 6.11235097 -0.875 3.9375 C-0.70742188 3.20402344 -0.53984375 2.47054687 -0.3671875 1.71484375 C-0.24601562 1.14894531 -0.12484375 0.58304688 0 0 Z " fill="#595C6B" transform="translate(34,39)"/>
<path d="M0 0 C-0.0928125 1.423125 -0.0928125 1.423125 -0.1875 2.875 C-0.125625 3.90625 -0.06375 4.9375 0 6 C0.99 6.66 1.98 7.32 3 8 C3 9.65 3 11.3 3 13 C-8.88 13 -20.76 13 -33 13 C-33 12.67 -33 12.34 -33 12 C-32.16750732 11.97494385 -31.33501465 11.9498877 -30.47729492 11.92407227 C-27.38537167 11.82887306 -24.29361148 11.72964328 -21.2019043 11.62768555 C-19.20696681 11.56312994 -17.21188071 11.5032217 -15.21679688 11.44335938 C-13.33637695 11.38051758 -13.33637695 11.38051758 -11.41796875 11.31640625 C-10.26063232 11.27974854 -9.1032959 11.24309082 -7.91088867 11.20532227 C-4.9356554 11.11671491 -4.9356554 11.11671491 -2 10 C-2 9.34 -2 8.68 -2 8 C-2.99 7.67 -3.98 7.34 -5 7 C-5.33 6.67 -5.66 6.34 -6 6 C-6.66 7.32 -7.32 8.64 -8 10 C-8 9.34 -8 8.68 -8 8 C-8.66 8 -9.32 8 -10 8 C-10.33 8.66 -10.66 9.32 -11 10 C-11.33 9.01 -11.66 8.02 -12 7 C-11 6 -10 5 -9 4 C-8.525625 3.46375 -8.05125 2.9275 -7.5625 2.375 C-5.23196975 0.32413338 -3.04516421 0 0 0 Z " fill="#9B9797" transform="translate(108,32)"/>
<path d="M0 0 C0.33 0 0.66 0 1 0 C1.33 1.98 1.66 3.96 2 6 C2.33 4.02 2.66 2.04 3 0 C3.33 0 3.66 0 4 0 C3.98428955 0.65073486 3.9685791 1.30146973 3.95239258 1.97192383 C3.89005351 4.91869424 3.85101316 7.86532598 3.8125 10.8125 C3.78736328 11.83666016 3.76222656 12.86082031 3.73632812 13.91601562 C3.72666016 14.89892578 3.71699219 15.88183594 3.70703125 16.89453125 C3.6913208 17.80050049 3.67561035 18.70646973 3.65942383 19.63989258 C4.07097467 22.49183667 4.98689798 23.05589209 7 25 C7 26.32 7 27.64 7 29 C6.34 29 5.68 29 5 29 C5 29.66 5 30.32 5 31 C3.35 30.67 1.7 30.34 0 30 C0 20.1 0 10.2 0 0 Z " fill="#1C232C" transform="translate(32,104)"/>
<path d="M0 0 C0.66 0 1.32 0 2 0 C2.1953125 2.05078125 2.390625 4.1015625 2.5859375 6.15234375 C2.72257813 6.76207031 2.85921875 7.37179688 3 8 C3.66 8.33 4.32 8.66 5 9 C5 13.29 5 17.58 5 22 C3.02 22.66 1.04 23.32 -1 24 C-1.02901394 20.5625177 -1.04680335 17.12506688 -1.0625 13.6875 C-1.07087891 12.71103516 -1.07925781 11.73457031 -1.08789062 10.72851562 C-1.09111328 9.79072266 -1.09433594 8.85292969 -1.09765625 7.88671875 C-1.10551147 6.59060669 -1.10551147 6.59060669 -1.11352539 5.26831055 C-1 3 -1 3 0 0 Z " fill="#1F2729" transform="translate(173,128)"/>
<path d="M0 0 C0.33 0 0.66 0 1 0 C1.33 11.88 1.66 23.76 2 36 C0.35 36 -1.3 36 -3 36 C-3.19820989 31.97962032 -3.3816467 27.95869488 -3.5625 23.9375 C-3.61857422 22.80376953 -3.67464844 21.67003906 -3.73242188 20.50195312 C-3.97983976 14.84433079 -4.09078977 9.56706777 -3 4 C-2.67 4 -2.34 4 -2 4 C-1.67 9.28 -1.34 14.56 -1 20 C-0.67 13.4 -0.34 6.8 0 0 Z " fill="#313235" transform="translate(162,148)"/>
<path d="M0 0 C4.95 0 9.9 0 15 0 C15.495 1.98 15.495 1.98 16 4 C10.18689263 6.00117693 5.02925113 6.26515079 -1.08984375 6.1953125 C-2.5066317 6.19106766 -2.5066317 6.19106766 -3.95204163 6.18673706 C-6.94732724 6.17560684 -9.94230586 6.1505156 -12.9375 6.125 C-14.9772092 6.11496095 -17.01692312 6.10583672 -19.05664062 6.09765625 C-24.0378774 6.07569096 -29.01888678 6.04121076 -34 6 C-34 5.67 -34 5.34 -34 5 C-16.675 4.505 -16.675 4.505 1 4 C0.505 2.02 0.505 2.02 0 0 Z " fill="#A09B94" transform="translate(154,187)"/>
<path d="M0 0 C0.33 0 0.66 0 1 0 C1.04898438 1.29292969 1.09796875 2.58585938 1.1484375 3.91796875 C1.55816299 13.74759544 2.17961807 23.31486121 4 33 C5.89179203 33.6814823 5.89179203 33.6814823 8 34 C8.66 33.34 9.32 32.68 10 32 C10.1953125 38.0546875 10.1953125 38.0546875 10 40 C9.34 40.66 8.68 41.32 8 42 C5.875 41.625 5.875 41.625 4 41 C4.33 39.35 4.66 37.7 5 36 C3.68 36 2.36 36 1 36 C-0.18975795 32.43072615 -0.12478155 29.20053028 -0.09765625 25.48828125 C-0.0962413 24.76005661 -0.09482635 24.03183197 -0.09336853 23.28153992 C-0.08777659 20.95848461 -0.07522562 18.63552612 -0.0625 16.3125 C-0.05748396 14.73632952 -0.05292123 13.16015752 -0.04882812 11.58398438 C-0.0378098 7.72261902 -0.02055074 3.86132592 0 0 Z " fill="#303133" transform="translate(165,148)"/>
<path d="M0 0 C0.33 0 0.66 0 1 0 C2.19388403 40.25230814 2.19388403 40.25230814 2 56 C2.66 56 3.32 56 4 56 C4 58.64 4 61.28 4 64 C3.01 64 2.02 64 1 64 C-0.08998917 56.96975844 -0.12863811 50.07384178 -0.09765625 42.96875 C-0.0962413 41.73709106 -0.09482635 40.50543213 -0.09336853 39.2364502 C-0.08779612 35.32427484 -0.07524867 31.41215789 -0.0625 27.5 C-0.05691482 24.8385425 -0.05291916 22.17708556 -0.04882812 19.515625 C-0.03783572 13.01039693 -0.02112514 6.50520264 0 0 Z " fill="#3C3C41" transform="translate(62,120)"/>
<path d="M0 0 C0.66 0 1.32 0 2 0 C2 7.26 2 14.52 2 22 C0.35 21.67 -1.3 21.34 -3 21 C-3.33 16.05 -3.66 11.1 -4 6 C-2.68 5.67 -1.36 5.34 0 5 C-0.66 4.67 -1.32 4.34 -2 4 C-1.34 4 -0.68 4 0 4 C0 2.68 0 1.36 0 0 Z " fill="#1E2021" transform="translate(39,168)"/>
<path d="M0 0 C1.08667969 0.11085937 2.17335937 0.22171875 3.29296875 0.3359375 C4.12441406 0.43132813 4.95585937 0.52671875 5.8125 0.625 C5.8125 1.285 5.8125 1.945 5.8125 2.625 C8.7825 2.955 11.7525 3.285 14.8125 3.625 C14.8125 4.285 14.8125 4.945 14.8125 5.625 C6.5625 5.625 -1.6875 5.625 -10.1875 5.625 C-8.58757443 -0.77470228 -5.9100453 -0.63548874 0 0 Z " fill="#A99E99" transform="translate(137.1875,38.375)"/>
<path d="M0 0 C0.33 2.97 0.66 5.94 1 9 C-2.3 9 -5.6 9 -9 9 C-9 7.68 -9 6.36 -9 5 C-10.32 4.67 -11.64 4.34 -13 4 C-12.67 3.01 -12.34 2.02 -12 1 C-8.32433144 -0.61729417 -3.92760325 -0.06546005 0 0 Z " fill="#A0A3A5" transform="translate(48,34)"/>
<path d="M0 0 C2.475 0.495 2.475 0.495 5 1 C5 6.28 5 11.56 5 17 C4.67 17 4.34 17 4 17 C3.67 21.62 3.34 26.24 3 31 C0.20822431 28.20822431 0.68786516 26.36816428 0.5859375 22.4609375 C0.54726562 21.15898438 0.50859375 19.85703125 0.46875 18.515625 C0.43729237 17.13542138 0.40604509 15.75521296 0.375 14.375 C0.33682066 12.98695459 0.29776895 11.59893289 0.2578125 10.2109375 C0.16327057 6.80742815 0.07772103 3.40392835 0 0 Z " fill="#484B52" transform="translate(158,47)"/>
<path d="M0 0 C2.19629783 3.54143525 2.23275752 6.39667247 2.1953125 10.515625 C2.18886719 11.76601562 2.18242188 13.01640625 2.17578125 14.3046875 C2.15902344 15.60664063 2.14226563 16.90859375 2.125 18.25 C2.11597656 19.56742188 2.10695312 20.88484375 2.09765625 22.2421875 C2.07408533 25.49497462 2.04118022 28.74739589 2 32 C1.01 32 0.02 32 -1 32 C-1.12825004 21.28399677 -0.79585256 10.687163 0 0 Z " fill="#3D3D42" transform="translate(59,152)"/>
<path d="M0 0 C0.66 0 1.32 0 2 0 C3.50156874 3.00313748 3.09281204 5.79067522 3.0625 9.125 C3.05347656 10.40632813 3.04445312 11.68765625 3.03515625 13.0078125 C3.02355469 13.99523438 3.01195312 14.98265625 3 16 C2.01 16.33 1.02 16.66 0 17 C0 16.34 0 15.68 0 15 C-0.66 15 -1.32 15 -2 15 C-2.21755666 9.5610835 -2.10428384 5.12919186 0 0 Z " fill="#2A323B" transform="translate(174,41)"/>
<path d="M0 0 C0.66 0 1.32 0 2 0 C2.144375 1.2375 2.28875 2.475 2.4375 3.75 C2.78688502 6.56504499 3.20379366 9.2701497 4 12 C4 9.36 4 6.72 4 4 C4.66 4 5.32 4 6 4 C6.08090971 5.62418745 6.13914995 7.24951745 6.1875 8.875 C6.22230469 9.77992187 6.25710937 10.68484375 6.29296875 11.6171875 C6.19628906 12.40351562 6.09960938 13.18984375 6 14 C5.01 14.66 4.02 15.32 3 16 C2.42251197 17.96361864 2.42251197 17.96361864 2.3125 20.125 C2.209375 21.40375 2.10625 22.6825 2 24 C1.67 24 1.34 24 1 24 C-0.32915021 16.02509872 -0.08801359 8.05813281 0 0 Z " fill="#252C31" transform="translate(173,80)"/>
<path d="M0 0 C2.375 0.75 2.375 0.75 3.375 1.75 C3.5625 4.1875 3.5625 4.1875 3.375 6.75 C2.715 7.41 2.055 8.07 1.375 8.75 C-1.75 8.375 -1.75 8.375 -4.625 7.75 C-5.3125 5.4375 -5.3125 5.4375 -5.625 2.75 C-3.9659358 -0.015107 -3.22812218 -0.30744021 0 0 Z " fill="#2F2F2F" transform="translate(58.625,191.25)"/>
<path d="M0 0 C1.32 0.33 2.64 0.66 4 1 C4 1.66 4 2.32 4 3 C3.34 3 2.68 3 2 3 C2 3.66 2 4.32 2 5 C2.66 5 3.32 5 4 5 C4 5.99 4 6.98 4 8 C3.01 8.495 3.01 8.495 2 9 C1.59270772 11.32156597 1.25561323 13.6568787 1 16 C0.67 16 0.34 16 0 16 C-0.33 14.35 -0.66 12.7 -1 11 C-1.99 11.33 -2.98 11.66 -4 12 C-4.17942163 8.05272412 -4.09350689 5.4019487 -2 2 C-1.34 2 -0.68 2 0 2 C0 1.34 0 0.68 0 0 Z " fill="#16181B" transform="translate(173,171)"/>
<path d="M0 0 C0.99 0 1.98 0 3 0 C3 12.87 3 25.74 3 39 C2.67 39 2.34 39 2 39 C2 32.07 2 25.14 2 18 C1.34 18 0.68 18 0 18 C0 17.01 0 16.02 0 15 C0.66 15 1.32 15 2 15 C2 11.7 2 8.4 2 5 C1.67 5.66 1.34 6.32 1 7 C0.34 7 -0.32 7 -1 7 C-0.67 5.68 -0.34 4.36 0 3 C0.66 3.33 1.32 3.66 2 4 C2 3.34 2 2.68 2 2 C1.34 2 0.68 2 0 2 C0 1.34 0 0.68 0 0 Z " fill="#7F8588" transform="translate(177,79)"/>
<path d="M0 0 C0.33 0 0.66 0 1 0 C1.33 2.64 1.66 5.28 2 8 C3.32 8.33 4.64 8.66 6 9 C6 9.99 6 10.98 6 12 C4.35 11.67 2.7 11.34 1 11 C1 11.99 1 12.98 1 14 C-0.65 14.33 -2.3 14.66 -4 15 C-4 13.02 -4 11.04 -4 9 C-3.34 8.67 -2.68 8.34 -2 8 C-1.31527335 6.11235097 -1.31527335 6.11235097 -0.875 3.9375 C-0.70742188 3.20402344 -0.53984375 2.47054687 -0.3671875 1.71484375 C-0.24601562 1.14894531 -0.12484375 0.58304688 0 0 Z " fill="#747982" transform="translate(34,39)"/>
<path d="M0 0 C5.61 0 11.22 0 17 0 C17 0.33 17 0.66 17 1 C14.03 1 11.06 1 8 1 C8 1.66 8 2.32 8 3 C7.34 3 6.68 3 6 3 C6 3.66 6 4.32 6 5 C4.35 5.66 2.7 6.32 1 7 C0.67 6.01 0.34 5.02 0 4 C-2.64 3.67 -5.28 3.34 -8 3 C-8 2.67 -8 2.34 -8 2 C-5.36 2 -2.72 2 0 2 C0 1.34 0 0.68 0 0 Z " fill="#B9B3AF" transform="translate(80,35)"/>
<path d="M0 0 C0.33 0 0.66 0 1 0 C1.33 6.6 1.66 13.2 2 20 C2.66 20.33 3.32 20.66 4 21 C4 24.3 4 27.6 4 31 C3.67 30.01 3.34 29.02 3 28 C2.01 28 1.02 28 0 28 C0 18.76 0 9.52 0 0 Z " fill="#0B1117" transform="translate(32,152)"/>
<path d="M0 0 C0.33 0 0.66 0 1 0 C1.04898438 1.13179687 1.09796875 2.26359375 1.1484375 3.4296875 C1.22346514 4.91148339 1.29901297 6.393253 1.375 7.875 C1.4059375 8.62136719 1.436875 9.36773437 1.46875 10.13671875 C1.55643831 14.53473188 1.55643831 14.53473188 4 18 C4 19.32 4 20.64 4 22 C3.01 22 2.02 22 1 22 C0.67 21.01 0.34 20.02 0 19 C-0.66 19.99 -1.32 20.98 -2 22 C-1.86105852 18.89548451 -1.712657 15.79149165 -1.5625 12.6875 C-1.50352539 11.36588867 -1.50352539 11.36588867 -1.44335938 10.01757812 C-1.40146484 9.17001953 -1.35957031 8.32246094 -1.31640625 7.44921875 C-1.27974854 6.66893311 -1.24309082 5.88864746 -1.20532227 5.0847168 C-1 3 -1 3 0 0 Z " fill="#3A3A3D" transform="translate(120,160)"/>
<path d="M0 0 C0.99 0 1.98 0 3 0 C3 0.66 3 1.32 3 2 C3.66 2 4.32 2 5 2 C5.33 1.34 5.66 0.68 6 0 C6 0.99 6 1.98 6 3 C6.66 3 7.32 3 8 3 C8.66 2.34 9.32 1.68 10 1 C12.125 1.375 12.125 1.375 14 2 C13.67 2.99 13.34 3.98 13 5 C8.38 5 3.76 5 -1 5 C-0.67 3.35 -0.34 1.7 0 0 Z " fill="#AAA3A2" transform="translate(112,40)"/>
<path d="M0 0 C2.97 0 5.94 0 9 0 C9 0.33 9 0.66 9 1 C7.02 1 5.04 1 3 1 C5.22252021 3.55589824 6.73351596 4.28545662 10 5 C10.99 5.66 11.98 6.32 13 7 C11.06280622 7.05406122 9.12518079 7.09282025 7.1875 7.125 C6.10855469 7.14820313 5.02960937 7.17140625 3.91796875 7.1953125 C1 7 1 7 -2 5 C-1.34 5 -0.68 5 0 5 C0 3.35 0 1.7 0 0 Z " fill="#BCBAB4" transform="translate(57,34)"/>
<path d="M0 0 C0.33 0 0.66 0 1 0 C1.0246985 3.95099928 1.04285923 7.90196874 1.05493164 11.85302734 C1.06244036 13.85906551 1.0751447 15.86508202 1.08789062 17.87109375 C1.09111328 19.12792969 1.09433594 20.38476562 1.09765625 21.6796875 C1.10289307 22.84226074 1.10812988 24.00483398 1.11352539 25.20263672 C1 28 1 28 0 30 C-0.66 29.67 -1.32 29.34 -2 29 C-1.34 19.43 -0.68 9.86 0 0 Z " fill="#181D1D" transform="translate(178,104)"/>
<path d="M0 0 C1.77615437 1.77615437 1 4.60136388 1 7 C1.43941523 9.26566343 1.43941523 9.26566343 2 11 C3.98 11 5.96 11 8 11 C8 11.33 8 11.66 8 12 C5.36 12 2.72 12 0 12 C0 11.01 0 10.02 0 9 C-0.66 9 -1.32 9 -2 9 C-1.67 6.69 -1.34 4.38 -1 2 C-3.31 2.33 -5.62 2.66 -8 3 C-7.67 2.01 -7.34 1.02 -7 0 C-4.31633121 -1.3418344 -2.84719317 -0.73004953 0 0 Z " fill="#7A7B7E" transform="translate(56,32)"/>
<path d="M0 0 C1.258125 -0.020625 2.51625 -0.04125 3.8125 -0.0625 C4.52019531 -0.07410156 5.22789063 -0.08570313 5.95703125 -0.09765625 C8 0 8 0 11 1 C11 2.32 11 3.64 11 5 C6.78121808 5.19622241 3.82989106 4.80230168 0 3 C0 2.01 0 1.02 0 0 Z " fill="#8F8781" transform="translate(42,187)"/>
<path d="M0 0 C0.66 0 1.32 0 2 0 C2 4.29 2 8.58 2 13 C0.02 13.66 -1.96 14.32 -4 15 C-4 12.36 -4 9.72 -4 7 C-3.34 7 -2.68 7 -2 7 C-1.67 7.66 -1.34 8.32 -1 9 C0.4783226 6.04335481 0.06032783 3.25770263 0 0 Z " fill="#171B1D" transform="translate(176,137)"/>
<path d="M0 0 C1.32 0 2.64 0 4 0 C4.6875 3.3125 4.6875 3.3125 5 7 C3.5625 8.9375 3.5625 8.9375 2 10 C1.34 9.67 0.68 9.34 0 9 C0 6.03 0 3.06 0 0 Z " fill="#3B3E4A" transform="translate(35,39)"/>
<path d="M0 0 C1.65 0 3.3 0 5 0 C5 4 5 4 3 7 C1.68 6.67 0.36 6.34 -1 6 C-1.33 4.68 -1.66 3.36 -2 2 C-1.34 2 -0.68 2 0 2 C0 1.34 0 0.68 0 0 Z " fill="#42434A" transform="translate(50,33)"/>
<path d="M0 0 C0.99 0.495 0.99 0.495 2 1 C2 3.97 2 6.94 2 10 C2.99 10 3.98 10 5 10 C5 13.63 5 17.26 5 21 C4.67 21 4.34 21 4 21 C4 19.02 4 17.04 4 15 C3.01 15 2.02 15 1 15 C0.67 10.05 0.34 5.1 0 0 Z " fill="#898D92" transform="translate(176,41)"/>
<path d="M0 0 C-0.33 0.99 -0.66 1.98 -1 3 C-3.0625 3.6875 -3.0625 3.6875 -5 4 C-5.33 5.32 -5.66 6.64 -6 8 C-6 6.68 -6 5.36 -6 4 C-7.32 3.67 -8.64 3.34 -10 3 C-9.67 2.01 -9.34 1.02 -9 0 C-5.8033 -1.37001429 -3.30096158 -0.8252404 0 0 Z " fill="#A1A2A6" transform="translate(45,35)"/>
<path d="M0 0 C0 0.33 0 0.66 0 1 C-1.98 1.66 -3.96 2.32 -6 3 C-6 4.32 -6 5.64 -6 7 C-6.99 7.33 -7.98 7.66 -9 8 C-9.33 7.34 -9.66 6.68 -10 6 C-9.67 5.34 -9.34 4.68 -9 4 C-10.65 4 -12.3 4 -14 4 C-10.07627117 0.07627117 -5.34401044 -0.25447669 0 0 Z " fill="#86807C" transform="translate(68,184)"/>
<path d="M0 0 C0 0.33 0 0.66 0 1 C-4.95 1.66 -9.9 2.32 -15 3 C-15.33 4.32 -15.66 5.64 -16 7 C-16.66 6.67 -17.32 6.34 -18 6 C-18.625 3.9375 -18.625 3.9375 -19 2 C-12.65176798 -0.30844801 -6.70518586 -0.19818283 0 0 Z " fill="#9B9491" transform="translate(80,184)"/>
<path d="M0 0 C0.99 0 1.98 0 3 0 C2.67 6.27 2.34 12.54 2 19 C1.67 19 1.34 19 1 19 C-0.15316726 12.65758005 -0.09507063 6.43311296 0 0 Z " fill="#2E3237" transform="translate(167,132)"/>
<path d="M0 0 C3.96 0 7.92 0 12 0 C9.6870518 2.3129482 8.52095125 2.49580975 5.375 3.125 C4.55773437 3.29257813 3.74046875 3.46015625 2.8984375 3.6328125 C1.95871094 3.81457031 1.95871094 3.81457031 1 4 C0.67 2.68 0.34 1.36 0 0 Z " fill="#9F928A" transform="translate(154,187)"/>
<path d="M0 0 C0.66 0 1.32 0 2 0 C3.60725635 3.21451269 3.05748185 6.43612536 3 10 C2.54625 9.525625 2.0925 9.05125 1.625 8.5625 C0.06741796 6.90972192 0.06741796 6.90972192 -2 6 C-1.34 4.02 -0.68 2.04 0 0 Z " fill="#282829" transform="translate(174,41)"/>
<path d="M0 0 C1.32 0 2.64 0 4 0 C4.33 2.97 4.66 5.94 5 9 C3.35 9 1.7 9 0 9 C0.66 8.67 1.32 8.34 2 8 C2 6.68 2 5.36 2 4 C1.34 3.34 0.68 2.68 0 2 C0 1.34 0 0.68 0 0 Z " fill="#959895" transform="translate(44,34)"/>
<path d="M0 0 C0.66 0 1.32 0 2 0 C2.91058531 3.07322544 3.08886184 5.80097361 3 9 C3.66 9.33 4.32 9.66 5 10 C5 10.66 5 11.32 5 12 C3.68 12 2.36 12 1 12 C0.67 8.04 0.34 4.08 0 0 Z " fill="#0E0F11" transform="translate(35,175)"/>
<path d="M0 0 C0.99 0.33 1.98 0.66 3 1 C2.34 2.65 1.68 4.3 1 6 C-0.32 6 -1.64 6 -3 6 C-3.33 5.01 -3.66 4.02 -4 3 C-3.34 3 -2.68 3 -2 3 C-2 2.34 -2 1.68 -2 1 C-1.34 0.67 -0.68 0.34 0 0 Z " fill="#918D89" transform="translate(172,40)"/>
<path d="M0 0 C0.33 0 0.66 0 1 0 C1.125 2.375 1.125 2.375 1 5 C0.34 5.66 -0.32 6.32 -1 7 C-2.32 7 -3.64 7 -5 7 C-5.33 6.01 -5.66 5.02 -6 4 C-5.01 3.67 -4.02 3.34 -3 3 C-2.34 3.33 -1.68 3.66 -1 4 C-0.67 2.68 -0.34 1.36 0 0 Z " fill="#363636" transform="translate(61,193)"/>
<path d="M0 0 C0.66 0 1.32 0 2 0 C2 5.28 2 10.56 2 16 C1.67 16 1.34 16 1 16 C0.92652344 14.95199219 0.92652344 14.95199219 0.8515625 13.8828125 C0.73941406 12.51769531 0.73941406 12.51769531 0.625 11.125 C0.55539063 10.22007812 0.48578125 9.31515625 0.4140625 8.3828125 C0.20431868 5.82058097 0.20431868 5.82058097 -2 4 C-1.34 4 -0.68 4 0 4 C0 2.68 0 1.36 0 0 Z " fill="#13161B" transform="translate(39,168)"/>
<path d="M0 0 C2 1 2 1 3 2 C4.51469448 2.23192865 6.03754562 2.41215238 7.5625 2.5625 C8.38878906 2.64628906 9.21507813 2.73007812 10.06640625 2.81640625 C10.70449219 2.87699219 11.34257813 2.93757813 12 3 C12 3.33 12 3.66 12 4 C5.565 4.495 5.565 4.495 -1 5 C-0.67 3.35 -0.34 1.7 0 0 Z " fill="#B8B3AD" transform="translate(108,33)"/>
<path d="M0 0 C1.67542976 0.28604898 3.34385343 0.61781233 5 1 C4.67 2.32 4.34 3.64 4 5 C3.67 4.34 3.34 3.68 3 3 C1.68 3.33 0.36 3.66 -1 4 C-1 1 -1 1 0 0 Z " fill="#181715" transform="translate(56,191)"/>
<path d="M0 0 C0.99 0 1.98 0 3 0 C3.33 2.64 3.66 5.28 4 8 C3.67 7.01 3.34 6.02 3 5 C2.01 5 1.02 5 0 5 C0 3.35 0 1.7 0 0 Z " fill="#57585B" transform="translate(32,175)"/>
<path d="M0 0 C0.99 0.33 1.98 0.66 3 1 C2.67 2.65 2.34 4.3 2 6 C1.67 5.34 1.34 4.68 1 4 C0.34 4 -0.32 4 -1 4 C-1.33 4.66 -1.66 5.32 -2 6 C-2.33 5.01 -2.66 4.02 -3 3 C-2.01 2.01 -1.02 1.02 0 0 Z " fill="#A69E9A" transform="translate(99,36)"/>
</svg>
