<?xml version="1.0" encoding="utf-8"?>
<!-- Generator: Adobe Illustrator 19.1.0, SVG Export Plug-In . SVG Version: 6.00 Build 0)  -->
<!DOCTYPE svg PUBLIC "-//W3C//DTD SVG 1.1//EN" "http://www.w3.org/Graphics/SVG/1.1/DTD/svg11.dtd">
<svg version="1.1" id="Layer_1" xmlns="http://www.w3.org/2000/svg" xmlns:xlink="http://www.w3.org/1999/xlink" x="0px" y="0px"
	 width="333.3px" height="74.8px" viewBox="0 0 333.3 74.8" enable-background="new 0 0 333.3 74.8" xml:space="preserve">
<g>
	<rect y="2.2" fill="#F25022" width="34.2" height="34.2"/>
	<rect x="37.8" y="2.2" fill="#7FBA00" width="34.2" height="34.2"/>
	<rect y="40" fill="#00A4EF" width="34.2" height="34.2"/>
	<rect x="37.8" y="40" fill="#FFB900" width="34.2" height="34.2"/>
	<path fill="#FFFFFF" d="M98.3,51.6c0,1.1,0.4,2.1,1.2,2.8c0.8,0.8,2.2,1.7,4.2,2.7c2.7,1.4,4.6,2.8,5.8,4.2c1.2,1.4,1.8,3,1.8,4.9
		c0,2.7-1,4.8-2.9,6.3c-1.9,1.5-4.4,2.3-7.5,2.3c-1.7,0-3.3-0.2-4.8-0.5c-1.4-0.4-2.5-0.8-3.3-1.2v-5.8c0.9,0.9,2.1,1.6,3.6,2.1
		c1.5,0.6,2.9,0.8,4.3,0.8c1.5,0,2.8-0.3,3.7-0.9c0.9-0.6,1.4-1.5,1.4-2.7c0-1-0.4-2-1.3-2.8c-0.9-0.9-2.5-1.9-4.8-3.1
		c-2.3-1.2-4-2.5-5.1-3.9c-1.1-1.4-1.7-3-1.7-4.9c0-2.5,1-4.5,2.9-6.1c1.9-1.6,4.4-2.4,7.5-2.4c1.3,0,2.6,0.1,3.9,0.4
		c1.3,0.2,2.2,0.5,2.8,0.8v5.5c-0.8-0.7-1.8-1.2-3-1.6c-1.2-0.4-2.4-0.6-3.6-0.6c-1.5,0-2.7,0.3-3.6,1
		C98.7,49.6,98.3,50.5,98.3,51.6 M133.9,52.5v21.7h-5.2v-2.9h-0.1c-0.7,1-1.6,1.8-2.7,2.3c-1.1,0.6-2.4,0.8-3.8,0.8
		c-2.5,0-4.4-0.7-5.8-2.1c-1.3-1.4-2-3.7-2-6.7V52.5h5.2v12.6c0,1.8,0.4,3.2,1.1,4.1c0.7,0.9,1.8,1.4,3.3,1.4c1.5,0,2.6-0.5,3.5-1.5
		c0.9-1,1.3-2.4,1.3-4V52.5H133.9z M149.3,52.1c0.4,0,0.8,0,1.1,0.1c0.3,0.1,0.6,0.1,0.8,0.2v5.2c-0.3-0.2-0.7-0.4-1.2-0.6
		c-0.5-0.2-1.1-0.3-1.9-0.3c-1.3,0-2.3,0.5-3.2,1.6c-0.9,1.1-1.3,2.7-1.3,4.9v11h-5.1V52.5h5.1v3.4h0.1c0.5-1.2,1.2-2.1,2.1-2.8
		C146.8,52.5,148,52.1,149.3,52.1 M164.4,41.7c0.6,0,1.2,0,1.6,0.1c0.5,0.1,0.9,0.2,1.3,0.3v4.4c-0.2-0.1-0.5-0.2-0.9-0.4
		c-0.4-0.1-0.9-0.2-1.5-0.2c-1.1,0-1.9,0.3-2.5,1c-0.6,0.7-0.9,1.7-0.9,3v2.6h4.8v4.2h-4.8v17.5h-5.2V56.7h-3.6v-4.2h3.6v-3
		c0-2.3,0.7-4.2,2.2-5.6C160.2,42.4,162.1,41.7,164.4,41.7 M186.1,60.6c0,3.6,0,6.4,0,8.5c0,2.1,0.1,3.8,0.3,5.1h-5.1l-0.3-2.3H181
		c-0.6,0.9-1.5,1.5-2.5,2c-1.1,0.5-2.4,0.7-4,0.7c-1.9,0-3.5-0.6-4.8-1.7c-1.3-1.2-1.9-2.7-1.9-4.7c0-2.1,0.8-3.8,2.5-5.1
		c1.7-1.3,4.3-2.1,7.8-2.6l3.1-0.4c0-1.4-0.3-2.5-1-3.1c-0.7-0.6-1.7-0.9-3-0.9c-1.5,0-2.9,0.2-4.2,0.7s-2.3,1-3,1.6v-4.7
		c0.7-0.4,1.8-0.8,3.3-1.2s3-0.6,4.7-0.6c2.7,0,4.8,0.7,6.2,2.2C185.4,55.7,186.1,57.8,186.1,60.6 M178.9,63.9
		c-2.3,0.3-3.8,0.7-4.8,1.3c-0.9,0.6-1.4,1.4-1.4,2.5c0,0.9,0.3,1.6,0.8,2.2c0.5,0.5,1.4,0.8,2.5,0.8c1.6,0,2.9-0.5,3.8-1.5
		c0.9-1,1.4-2.2,1.4-3.7v-1.9L178.9,63.9z M201.3,70.5c0.8,0,1.6-0.2,2.5-0.5c0.9-0.4,1.8-0.8,2.5-1.4v4.8c-0.8,0.5-1.7,0.8-2.8,1.1
		c-1,0.2-2.2,0.4-3.4,0.4c-3.2,0-5.8-1-7.8-3c-2-2-3-4.6-3-7.7c0-3.5,1-6.4,3.1-8.6c2-2.3,4.9-3.4,8.7-3.4c1,0,1.9,0.1,2.9,0.4
		c1,0.2,1.8,0.5,2.3,0.9v4.9c-0.8-0.6-1.6-1-2.4-1.3c-0.8-0.3-1.7-0.5-2.5-0.5c-2,0-3.6,0.7-4.9,2c-1.2,1.3-1.9,3.1-1.9,5.3
		c0,2.2,0.6,3.9,1.8,5.1C197.7,69.9,199.3,70.5,201.3,70.5 M226.8,68.8V73c-0.8,0.5-2,1-3.3,1.3s-2.8,0.5-4.4,0.5
		c-3.3,0-5.9-1-7.7-2.9c-1.8-2-2.8-4.7-2.8-8.2c0-3.4,1-6.1,2.9-8.3c2-2.2,4.5-3.3,7.5-3.3c3,0,5.3,0.9,7,2.8
		c1.7,1.8,2.5,4.4,2.5,7.6v2.5h-14.9c0.2,2.2,0.9,3.7,2.1,4.6s2.7,1.3,4.6,1.3c1.2,0,2.4-0.2,3.5-0.6C225,69.9,226,69.4,226.8,68.8
		 M223.6,61.2c0-1.7-0.4-3-1.2-3.9c-0.8-0.9-1.9-1.3-3.3-1.3c-1.2,0-2.3,0.4-3.3,1.3c-1,0.9-1.6,2.2-1.9,3.9H223.6z M255.2,57.9
		L255.2,57.9c2.2,0.4,3.9,1.1,5.1,2.5s1.9,3,1.9,5c0,2.7-1,4.8-2.9,6.4c-2,1.6-4.5,2.4-7.6,2.4h-10.1V43.9h9.8c3,0,5.3,0.6,7,1.9
		c1.7,1.3,2.5,3,2.5,5.1c0,1.6-0.5,3.1-1.5,4.3C258.2,56.5,256.9,57.4,255.2,57.9 M246.7,56.4h3.2c1.7,0,3-0.4,3.9-1.2
		c0.9-0.8,1.4-1.9,1.4-3.4c0-1.2-0.4-2.1-1.3-2.7c-0.9-0.6-2.2-1-4-1h-3.2V56.4z M246.7,70h4.2c1.8,0,3.2-0.4,4.2-1.3
		c1-0.9,1.5-2,1.5-3.4c0-1.4-0.5-2.5-1.5-3.3c-1-0.8-2.5-1.2-4.5-1.2h-3.8V70z M264.2,63.7c0-3.6,1-6.4,3-8.5c2-2.1,4.8-3.2,8.5-3.2
		c3.4,0,6,1,8,3c1.9,2,2.9,4.8,2.9,8.2c0,3.5-1,6.3-3,8.4c-2,2.1-4.8,3.1-8.3,3.1c-3.4,0-6-1-8-3C265.2,69.8,264.2,67.1,264.2,63.7
		 M269.5,63.5c0,2.3,0.5,4,1.5,5.2c1,1.2,2.5,1.8,4.4,1.8c1.9,0,3.3-0.6,4.2-1.8c1-1.2,1.5-3,1.5-5.3c0-2.3-0.5-4.1-1.5-5.3
		c-1-1.2-2.4-1.8-4.2-1.8c-1.9,0-3.3,0.6-4.4,1.9C270,59.4,269.5,61.2,269.5,63.5 M288.4,63.7c0-3.6,1-6.4,3-8.5
		c2-2.1,4.8-3.2,8.5-3.2c3.4,0,6.1,1,8,3c1.9,2,2.9,4.8,2.9,8.2c0,3.5-1,6.3-3,8.4c-2,2.1-4.8,3.1-8.3,3.1c-3.4,0-6-1-8-3
		C289.4,69.8,288.4,67.1,288.4,63.7 M293.8,63.5c0,2.3,0.5,4,1.5,5.2c1,1.2,2.5,1.8,4.4,1.8c1.9,0,3.3-0.6,4.2-1.8
		c1-1.2,1.5-3,1.5-5.3c0-2.3-0.5-4.1-1.5-5.3c-1-1.2-2.4-1.8-4.2-1.8c-1.9,0-3.3,0.6-4.4,1.9C294.3,59.4,293.8,61.2,293.8,63.5
		 M323.8,63l9.6,11.3h-6.4l-8.3-10.4h-0.1v10.4h-5.1V42.3h5.1v20.3h0.1l7.8-10h6.2L323.8,63z M126.4,2.2v30.3h-5.3V8.8h-0.1
		l-9.4,23.8h-3.5L98.5,8.8h-0.1v23.8h-4.9V2.2h7.5l8.7,22.5h0.1l9.2-22.5H126.4z M130.8,4.5c0-0.8,0.3-1.6,0.9-2.1
		c0.6-0.6,1.3-0.9,2.2-0.9c0.9,0,1.6,0.3,2.2,0.9c0.6,0.6,0.9,1.3,0.9,2.1c0,0.8-0.3,1.5-0.9,2.1c-0.6,0.6-1.3,0.8-2.2,0.8
		c-0.9,0-1.6-0.3-2.2-0.9C131.1,6.1,130.8,5.4,130.8,4.5 M136.5,32.6h-5.1V10.8h5.1V32.6z M152,28.8c0.8,0,1.6-0.2,2.5-0.5
		c0.9-0.4,1.8-0.8,2.5-1.4v4.8c-0.8,0.5-1.7,0.8-2.8,1.1c-1,0.2-2.2,0.4-3.4,0.4c-3.2,0-5.8-1-7.8-3c-2-2-3-4.6-3-7.7
		c0-3.5,1-6.4,3.1-8.6c2-2.3,4.9-3.4,8.7-3.4c1,0,1.9,0.1,2.9,0.4c1,0.2,1.8,0.5,2.3,0.9v4.9c-0.8-0.6-1.6-1-2.4-1.3
		s-1.7-0.5-2.5-0.5c-2,0-3.6,0.7-4.9,2c-1.2,1.3-1.9,3.1-1.9,5.3c0,2.2,0.6,3.9,1.8,5.1C148.3,28.2,149.9,28.8,152,28.8 M171.6,10.5
		c0.4,0,0.8,0,1.1,0.1c0.3,0.1,0.6,0.1,0.8,0.2v5.2c-0.3-0.2-0.7-0.4-1.2-0.6c-0.5-0.2-1.1-0.3-1.9-0.3c-1.3,0-2.3,0.5-3.2,1.6
		c-0.9,1.1-1.3,2.7-1.3,4.9v11h-5.1V10.8h5.1v3.4h0.1c0.5-1.2,1.2-2.1,2.1-2.8C169.1,10.8,170.3,10.5,171.6,10.5 M173.8,22
		c0-3.6,1-6.4,3-8.5c2-2.1,4.8-3.2,8.5-3.2c3.4,0,6.1,1,8,3c1.9,2,2.9,4.8,2.9,8.2c0,3.5-1,6.3-3,8.4c-2,2.1-4.8,3.1-8.3,3.1
		c-3.4,0-6-1-8-3C174.8,28.1,173.8,25.4,173.8,22 M179.1,21.8c0,2.3,0.5,4,1.5,5.2c1,1.2,2.5,1.8,4.4,1.8c1.9,0,3.3-0.6,4.2-1.8
		c1-1.2,1.5-3,1.5-5.3c0-2.3-0.5-4.1-1.5-5.3c-1-1.2-2.4-1.8-4.2-1.8c-1.9,0-3.3,0.6-4.4,1.9C179.6,17.7,179.1,19.5,179.1,21.8
		 M203.7,16.5c0,0.7,0.2,1.3,0.7,1.7c0.5,0.4,1.5,0.9,3.1,1.6c2,0.8,3.5,1.7,4.3,2.8c0.8,1,1.2,2.3,1.2,3.7c0,2-0.8,3.7-2.4,4.9
		c-1.6,1.2-3.7,1.9-6.4,1.9c-0.9,0-1.9-0.1-3-0.3c-1.1-0.2-2-0.5-2.8-0.8v-5c0.9,0.6,1.9,1.2,3,1.5c1.1,0.4,2,0.6,2.9,0.6
		c1.2,0,2-0.2,2.6-0.5c0.5-0.3,0.8-0.9,0.8-1.6c0-0.7-0.3-1.3-0.9-1.8c-0.6-0.5-1.7-1-3.2-1.7c-1.9-0.8-3.2-1.7-4-2.7
		c-0.8-1-1.2-2.2-1.2-3.8c0-2,0.8-3.6,2.3-4.8c1.6-1.3,3.6-1.9,6.1-1.9c0.8,0,1.6,0.1,2.6,0.3c0.9,0.2,1.7,0.4,2.4,0.7V16
		c-0.7-0.5-1.5-0.8-2.4-1.2c-0.9-0.3-1.8-0.5-2.7-0.5c-1,0-1.7,0.2-2.3,0.6C204,15.3,203.7,15.9,203.7,16.5 M215.3,22
		c0-3.6,1-6.4,3-8.5c2-2.1,4.8-3.2,8.5-3.2c3.4,0,6,1,8,3c1.9,2,2.9,4.8,2.9,8.2c0,3.5-1,6.3-3,8.4c-2,2.1-4.8,3.1-8.3,3.1
		c-3.4,0-6-1-8-3C216.2,28.1,215.3,25.4,215.3,22 M220.6,21.8c0,2.3,0.5,4,1.5,5.2c1,1.2,2.5,1.8,4.4,1.8c1.9,0,3.3-0.6,4.2-1.8
		c1-1.2,1.5-3,1.5-5.3c0-2.3-0.5-4.1-1.5-5.3c-1-1.2-2.4-1.8-4.2-1.8c-1.9,0-3.3,0.6-4.4,1.9C221.1,17.7,220.6,19.5,220.6,21.8
		 M254.6,15h-7.6v17.5h-5.2V15h-3.6v-4.2h3.6v-3c0-2.3,0.7-4.2,2.2-5.6c1.5-1.5,3.4-2.2,5.7-2.2c0.6,0,1.2,0,1.6,0.1
		c0.5,0.1,0.9,0.2,1.3,0.3v4.4c-0.2-0.1-0.5-0.2-0.9-0.4c-0.4-0.1-0.9-0.2-1.5-0.2c-1.1,0-1.9,0.3-2.5,1c-0.6,0.7-0.9,1.7-0.9,3v2.6
		h7.6V5.9l5.1-1.6v6.4h5.2V15h-5.2v10.2c0,1.3,0.2,2.3,0.7,2.8c0.5,0.5,1.3,0.8,2.3,0.8c0.3,0,0.7-0.1,1.1-0.2
		c0.4-0.1,0.8-0.3,1.1-0.5v4.2c-0.3,0.2-0.9,0.4-1.6,0.5c-0.8,0.2-1.5,0.2-2.2,0.2c-2.2,0-3.8-0.6-4.9-1.7c-1.1-1.1-1.6-2.9-1.6-5.2
		V15z"/>
</g>
</svg>
