<?xml version="1.0" encoding="UTF-8"?>
<svg version="1.1" xmlns="http://www.w3.org/2000/svg" width="173" height="231">
<path d="M0 0 C2.1385485 2.1385485 2.42655063 3.13275314 3 6 C7.29568046 5.46303994 11.3737642 4.69560427 15.5703125 3.6015625 C19.89017353 2.53201491 24.24951597 1.64360476 28.60546875 0.734375 C30.59587593 0.30376907 32.58149632 -0.15316595 34.55078125 -0.671875 C40.25703722 -2.17192097 45.18544356 -1.89828221 51 -1 C52 2 52 2 51.25 5.375 C51.1675 6.57125 51.085 7.7675 51 9 C51.804375 9.721875 52.60875 10.44375 53.4375 11.1875 C56 14 56 14 56.17581177 16.42079163 C56.12697845 17.37900314 56.07814514 18.33721466 56.02783203 19.32446289 C55.88354948 26.28554182 56.89425883 32.78397934 58.1171875 39.62109375 C58.44922088 41.54978607 58.78125393 43.47847845 59.1132679 45.40717411 C59.57570924 48.07800243 60.04749829 50.74714827 60.51904297 53.41638184 C61.22558524 57.4281172 61.91844995 61.44223244 62.61314583 65.45603275 C63.15483825 68.58447264 63.69914451 71.71240119 64.24874878 74.83946228 C64.64597842 77.10603079 65.03832136 79.37346239 65.42523193 81.64181519 C65.82491195 83.97701688 66.23858944 86.30984837 66.66314697 88.64065552 C66.86470398 89.80603851 67.06626099 90.97142151 67.27392578 92.17211914 C67.46125275 93.21976944 67.64857971 94.26741974 67.84158325 95.34681702 C68 98 68 98 66 101 C64.20458984 101.68847656 64.20458984 101.68847656 61.9609375 102.140625 C61.08953125 102.32085205 60.218125 102.5010791 59.3203125 102.68676758 C58.34835938 102.87263428 57.37640625 103.05850098 56.375 103.25 C55.3540625 103.45326904 54.333125 103.65653809 53.28125 103.8659668 C49.52498845 104.60035714 45.76367358 105.30487275 42 106 C41.21016724 106.14624817 40.42033447 106.29249634 39.60656738 106.44317627 C34.30528577 107.42216349 29.00122744 108.38458432 23.69415283 109.33166504 C21.90669746 109.65067851 20.11954278 109.97138162 18.33270264 110.29382324 C15.78555308 110.75150444 13.23687193 111.19941561 10.6875 111.64453125 C9.92990387 111.78178116 9.17230774 111.91903107 8.39175415 112.06044006 C-4.14164337 114.21167664 -4.14164337 114.21167664 -7.87182617 111.77954102 C-9.16284892 109.74312795 -10.1383609 107.76187506 -11.05078125 105.52734375 C-11.59931763 104.19243896 -11.59931763 104.19243896 -12.15893555 102.83056641 C-12.53961182 101.87585449 -12.92028809 100.92114258 -13.3125 99.9375 C-13.71057861 98.94669434 -14.10865723 97.95588867 -14.51879883 96.93505859 C-19.65986476 83.99250045 -23.88555402 70.96706444 -27.4375 57.5 C-27.70908936 56.50887207 -27.98067871 55.51774414 -28.26049805 54.49658203 C-30.18486392 46.90258593 -30.59830633 40.15559645 -27.75 32.75 C-26.11846411 30.18615788 -24.32870794 27.92832925 -22.328125 25.64453125 C-20.35479067 23.20107903 -18.80015073 20.53582691 -17.2109375 17.83203125 C-16 16 -16 16 -14.3203125 14.5703125 C-12.74444384 13.0433901 -12.74444384 13.0433901 -13.03125 10.66015625 C-13.34329491 8.9309074 -13.6557936 7.20174037 -13.96875 5.47265625 C-14 3 -14 3 -12.7109375 0.73828125 C-8.92265411 -3.11054548 -4.4392214 -2.3429224 0 0 Z " fill="#A64632" transform="translate(69,65)"/>
<path d="M0 0 C1 3 1 3 0.25 6.375 C-0.43049144 10.16862919 -0.43049144 10.16862919 2.4375 12.9375 C3.7059375 13.9584375 3.7059375 13.9584375 5 15 C4.67 15.66 4.34 16.32 4 17 C3.01644531 16.80092041 2.03289062 16.60184082 1.01953125 16.39672852 C-3.36498133 15.77766492 -7.05612744 16.60103313 -11.3125 17.65234375 C-12.08505127 17.83132706 -12.85760254 18.01031036 -13.65356445 18.19471741 C-16.10528901 18.76398053 -18.55274626 19.34933852 -21 19.9375 C-23.44756815 20.52042673 -25.89582899 21.0995462 -28.34643555 21.66957092 C-29.86538601 22.02335974 -31.38262557 22.38460838 -32.89770508 22.75462341 C-37.38175464 23.8048524 -41.39386361 24.17242827 -46 24 C-46.69951063 21.586238 -47.38483919 19.16989766 -48.0625 16.75 C-48.26166016 16.06808594 -48.46082031 15.38617188 -48.66601562 14.68359375 C-50.40009269 8.41657839 -50.40009269 8.41657839 -49 5 C-48.67 5.66 -48.34 6.32 -48 7 C-43.70431954 6.46303994 -39.6262358 5.69560427 -35.4296875 4.6015625 C-31.10982647 3.53201491 -26.75048403 2.64360476 -22.39453125 1.734375 C-20.40412407 1.30376907 -18.41850368 0.84683405 -16.44921875 0.328125 C-10.74296278 -1.17192097 -5.81455644 -0.89828221 0 0 Z " fill="#F39167" transform="translate(120,64)"/>
<path d="M0 0 C2.28392059 2.96909677 2.34119474 6.26198322 2.71484375 9.91015625 C3.14052002 13.02983852 4.12868362 15.97943655 5 19 C5 20.32 5 21.64 5 23 C5.99 23.33 6.98 23.66 8 24 C7.33991943 24.13575439 6.67983887 24.27150879 5.99975586 24.41137695 C2.97737025 25.03747472 -0.04252332 25.67488847 -3.0625 26.3125 C-4.10083984 26.52583984 -5.13917969 26.73917969 -6.20898438 26.95898438 C-14.66998005 28.75862473 -21.03749281 30.35606342 -27 37 C-27.66 37.66 -28.32 38.32 -29 39 C-28.8556395 33.36994053 -26.26712577 30.46544765 -22.84375 26.3125 C-20.67055441 23.58679706 -18.89672491 20.73171939 -17.140625 17.7265625 C-16 16 -16 16 -14.328125 14.58203125 C-12.74463847 13.04553318 -12.74463847 13.04553318 -13.03125 10.66015625 C-13.34329491 8.9309074 -13.6557936 7.20174037 -13.96875 5.47265625 C-14 3 -14 3 -12.7109375 0.73828125 C-9.00207098 -3.0298594 -4.31245246 -2.51559727 0 0 Z " fill="#A43E30" transform="translate(69,65)"/>
<path d="M0 0 C-0.66 0.33 -1.32 0.66 -2 1 C-2 2.98 -2 4.96 -2 7 C-4.14593446 7 -6.29227062 6.99250588 -8.4375 6.9375 C-11.04362655 6.91444409 -11.04362655 6.91444409 -13.6875 7.625 C-14.450625 7.74875 -15.21375 7.8725 -16 8 C-16.66 7.34 -17.32 6.68 -18 6 C-20.90675183 5.97831363 -20.90675183 5.97831363 -24.125 6.375 C-25.22070312 6.48585938 -26.31640625 6.59671875 -27.4453125 6.7109375 C-28.28835937 6.80632812 -29.13140625 6.90171875 -30 7 C-30 7.66 -30 8.32 -30 9 C-27.36 8.34 -24.72 7.68 -22 7 C-22 8.32 -22 9.64 -22 11 C-21.34 11.33 -20.68 11.66 -20 12 C-20 12.66 -20 13.32 -20 14 C-24.24972998 16.33049708 -27.40780214 15.92648537 -32.01171875 15.19140625 C-34.07319733 14.81540558 -34.07319733 14.81540558 -36 16 C-36.66 15.34 -37.32 14.68 -38 14 C-37.34 13.34 -36.68 12.68 -36 12 C-36 11.34 -36 10.68 -36 10 C-38.31 10.33 -40.62 10.66 -43 11 C-43.103125 11.639375 -43.20625 12.27875 -43.3125 12.9375 C-43.539375 13.618125 -43.76625 14.29875 -44 15 C-47 16 -47 16 -49.25 15.375 C-53.22510942 14.83293962 -55.42891493 16.2494681 -59 18 C-59 18.66 -59 19.32 -59 20 C-58.01 20.66 -57.02 21.32 -56 22 C-58.64 22 -61.28 22 -64 22 C-63.34 20.35 -62.68 18.7 -62 17 C-62.66 16.67 -63.32 16.34 -64 16 C-60.04 15.505 -60.04 15.505 -56 15 C-56.33 14.34 -56.66 13.68 -57 13 C-58.32 13 -59.64 13 -61 13 C-61 12.34 -61 11.68 -61 11 C-60.16221008 10.81874069 -60.16221008 10.81874069 -59.30749512 10.63381958 C-53.46670857 9.36987836 -47.62631179 8.10414786 -41.78613281 6.83740234 C-39.60979896 6.36559386 -37.43336789 5.89423361 -35.25683594 5.42333984 C-32.11888039 4.74435861 -28.98128411 4.06373814 -25.84375 3.3828125 C-24.87884644 3.17439728 -23.91394287 2.96598206 -22.9197998 2.75125122 C-18.77922112 1.85121407 -14.66579357 0.92302967 -10.57226562 -0.17236328 C-6.49084824 -1.11796231 -4.04776477 -0.84328433 0 0 Z M-35 8 C-34 10 -34 10 -34 10 Z " fill="#852E21" transform="translate(124,80)"/>
<path d="M0 0 C0.66 0 1.32 0 2 0 C2.06305832 0.5415976 2.12611664 1.08319519 2.19108582 1.64120483 C3.61782309 13.67709633 5.37808751 25.6144059 7.55078125 37.5390625 C7.77474579 38.77227234 7.99871033 40.00548218 8.22946167 41.27606201 C9.15767738 46.36360999 10.0927662 51.44975822 11.04321289 56.53320312 C11.74559173 60.30384355 12.43066525 64.07730189 13.11328125 67.8515625 C13.33293045 69.00040924 13.55257965 70.14925598 13.77888489 71.33291626 C13.96956039 72.39948456 14.1602359 73.46605286 14.35668945 74.56494141 C14.52973099 75.49706451 14.70277252 76.42918762 14.88105774 77.38955688 C15.02302296 80.5052883 14.5326724 82.28992833 13 85 C10.11717718 86.06918721 7.67236714 86.75120131 4.6875 87.3125 C3.8845752 87.47782227 3.08165039 87.64314453 2.25439453 87.81347656 C-4.55529681 89.12256349 -11.06807069 89.4409001 -18 89 C-14.15376181 85.40585607 -11.60912891 84.44619833 -6.375 84.1875 C-5.24835938 84.11917969 -4.12171875 84.05085938 -2.9609375 83.98046875 C0 84 0 84 3 85 C3.33 84.34 3.66 83.68 4 83 C6.32156597 82.59270772 8.6568787 82.25561323 11 82 C10.52434234 79.54093963 10.04463948 77.08279007 9.5625 74.625 C9.42779297 73.92632812 9.29308594 73.22765625 9.15429688 72.5078125 C8.4227578 68.64371266 8.4227578 68.64371266 7 65 C7.01291231 63.40963374 7.02755172 61.8192669 7.04980469 60.22900391 C6.94456328 55.51893504 6.23280605 50.8541647 5.625 46.1875 C5.49867187 45.13884766 5.37234375 44.09019531 5.2421875 43.00976562 C5.11328125 42.01009766 4.984375 41.01042969 4.8515625 39.98046875 C4.73635254 39.07192139 4.62114258 38.16337402 4.50244141 37.22729492 C4.16535063 34.80923583 4.16535063 34.80923583 2 33 C1.71289062 31.00048828 1.71289062 31.00048828 1.65625 28.5703125 C1.62660156 27.69246094 1.59695312 26.81460938 1.56640625 25.91015625 C1.54449219 24.99105469 1.52257812 24.07195312 1.5 23.125 C1.45647515 21.31487813 1.40468886 19.50493181 1.34375 17.6953125 C1.31571289 16.4889917 1.31571289 16.4889917 1.28710938 15.25830078 C0.97324633 12.78956508 0.13318128 11.19341826 -1 9 C-1 5.88772805 -0.54372951 3.05847848 0 0 Z " fill="#9A5543" transform="translate(122,81)"/>
<path d="M0 0 C2.3125 1.5 2.3125 1.5 4 3 C2.68 3.33 1.36 3.66 0 4 C0 4.66 0 5.32 0 6 C-0.99 6 -1.98 6 -3 6 C-3 6.66 -3 7.32 -3 8 C-3.66644531 7.96519531 -4.33289063 7.93039063 -5.01953125 7.89453125 C-12.1754868 7.68435633 -18.20563125 8.7921587 -25 11 C-24.67 12.32 -24.34 13.64 -24 15 C-27.3 15 -30.6 15 -34 15 C-34.33 15.66 -34.66 16.32 -35 17 C-35.66 13.7 -36.32 10.4 -37 7 C-35.94683594 6.91363281 -34.89367187 6.82726562 -33.80859375 6.73828125 C-24.72108456 5.88804999 -16.71664183 4.25104593 -8.171875 1.0234375 C-5.17401865 0.05614887 -3.11138043 -0.33902564 0 0 Z " fill="#F58C65" transform="translate(108,67)"/>
<path d="M0 0 C0.66 0 1.32 0 2 0 C2.03738281 0.58265625 2.07476562 1.1653125 2.11328125 1.765625 C2.67209056 8.7343058 4.15990547 15.26455965 6 22 C1.545 23.485 1.545 23.485 -3 25 C-1.22868439 24.69024532 0.54203778 24.37709575 2.3125 24.0625 C3.29863281 23.88847656 4.28476562 23.71445313 5.30078125 23.53515625 C8.08189213 23.04253153 8.08189213 23.04253153 11 22 C11.66 22.66 12.32 23.32 13 24 C11.99839844 24.25394531 10.99679688 24.50789063 9.96484375 24.76953125 C8.62232073 25.11689735 7.27987701 25.46457005 5.9375 25.8125 C5.28072266 25.97814453 4.62394531 26.14378906 3.94726562 26.31445312 C-3.27485841 28.20003231 -8.8724546 30.28644941 -14 36 C-14.66 36.66 -15.32 37.32 -16 38 C-15.8556395 32.36994053 -13.26712577 29.46544765 -9.84375 25.3125 C-7.67055441 22.58679706 -5.89672491 19.73171939 -4.140625 16.7265625 C-3 15 -3 15 -1.3359375 13.58984375 C0.25284396 12.03848335 0.25284396 12.03848335 0.0390625 9.58984375 C-0.16589844 8.27693359 -0.16589844 8.27693359 -0.375 6.9375 C-1.08813559 2.17627119 -1.08813559 2.17627119 0 0 Z " fill="#EA8472" transform="translate(56,66)"/>
<path d="M0 0 C0.495 1.485 0.495 1.485 1 3 C-2.58793598 4.19597866 -5.49114126 3.98698344 -9.234375 3.83984375 C-12.69476608 4.04023363 -15.67646517 5.02083821 -19 6 C-21.80056386 6.57316539 -24.61671553 7.03790929 -27.4375 7.5 C-31.77866676 8.2150157 -36.05565328 8.97933752 -40.31640625 10.0859375 C-43.72432034 10.93159169 -46.51192113 11.17440394 -50 11 C-50 11.66 -50 12.32 -50 13 C-50.99 13 -51.98 13 -53 13 C-52.125 8.125 -52.125 8.125 -51 7 C-48.80023376 6.59602148 -46.58930717 6.2521647 -44.375 5.9375 C-43.16585937 5.76089844 -41.95671875 5.58429688 -40.7109375 5.40234375 C-37.10638011 5.01153384 -33.62223645 4.93016254 -30 5 C-30 4.34 -30 3.68 -30 3 C-19.86185582 0.96022967 -10.38006571 -0.48741178 0 0 Z " fill="#C2573F" transform="translate(112,109)"/>
<path d="M0 0 C0 0.66 0 1.32 0 2 C-28.88311604 10.28506617 -28.88311604 10.28506617 -37 10 C-37 9.34 -37 8.68 -37 8 C-34.36 7.34 -31.72 6.68 -29 6 C-29 4.68 -29 3.36 -29 2 C-18.44900857 -2.41761136 -10.98730063 -2.90916707 0 0 Z " fill="#F4A582" transform="translate(112,76)"/>
<path d="M0 0 C0.598125 0.763125 1.19625 1.52625 1.8125 2.3125 C3.46959332 4.3483575 5.10297674 6.1978279 7 8 C6.67 8.66 6.34 9.32 6 10 C5.01644531 9.80092041 4.03289062 9.60184082 3.01953125 9.39672852 C-1.36498133 8.77766492 -5.05612744 9.60103313 -9.3125 10.65234375 C-10.4713269 10.92081871 -10.4713269 10.92081871 -11.65356445 11.19471741 C-14.10528901 11.76398053 -16.55274626 12.34933852 -19 12.9375 C-21.44756815 13.52042673 -23.89582899 14.0995462 -26.34643555 14.66957092 C-27.86538601 15.02335974 -29.38262557 15.38460838 -30.89770508 15.75462341 C-35.38175464 16.8048524 -39.39386361 17.17242827 -44 17 C-44 15.02 -44 13.04 -44 11 C-41.03 11 -38.06 11 -35 11 C-35 11.33 -35 11.66 -35 12 C-37.64 12.33 -40.28 12.66 -43 13 C-43 13.66 -43 14.32 -43 15 C-42.29617187 14.81824219 -41.59234375 14.63648437 -40.8671875 14.44921875 C-29.33250883 11.51284494 -17.72728843 9.03432554 -6 7 C-6 6.34 -6 5.68 -6 5 C-6.99 4.67 -7.98 4.34 -9 4 C-6.69 4.33 -4.38 4.66 -2 5 C-2 3.68 -2 2.36 -2 1 C-1.34 0.67 -0.68 0.34 0 0 Z " fill="#E5997D" transform="translate(118,71)"/>
<path d="M0 0 C2.5214276 5.0428552 4 9.33978574 4 15 C4.99 15.33 5.98 15.66 7 16 C-0.5177305 17.12765957 -0.5177305 17.12765957 -3.125 16.4375 C-6.01816456 15.76242827 -8.21378757 17.05373918 -11 18 C-13.99075923 18.45032709 -16.98675988 18.74554861 -20 19 C-16.31265242 16.54176828 -13.30300029 15.98757384 -9 15 C-9.66 11.7 -10.32 8.4 -11 5 C-10.01 5 -9.02 5 -8 5 C-7.67 6.65 -7.34 8.3 -7 10 C-5.35 10.33 -3.7 10.66 -2 11 C-2 10.34 -2 9.68 -2 9 C-1.34 9 -0.68 9 0 9 C0 6.03 0 3.06 0 0 Z " fill="#D1634B" transform="translate(70,73)"/>
<path d="M0 0 C2.23827489 4.47654978 2.68659116 7.06381081 3 12 C0.29006727 16.0648991 -2.78533169 16.2401464 -7.3125 17.1875 C-8.1154248 17.3618457 -8.91834961 17.53619141 -9.74560547 17.71582031 C-16.57881356 19.10557925 -23.02582366 19.44358719 -30 19 C-25.50522331 14.40411381 -21.64239196 14.35296969 -15.5625 14.25 C-14.72912109 14.22035156 -13.89574219 14.19070312 -13.03710938 14.16015625 C-8.68766251 14.01574774 -4.35353665 14 0 14 C0 9.38 0 4.76 0 0 Z " fill="#8A5041" transform="translate(134,151)"/>
<path d="M0 0 C0.33 0 0.66 0 1 0 C1 1.65 1 3.3 1 5 C1.66 5 2.32 5 3 5 C3.185625 6.2065625 3.185625 6.2065625 3.375 7.4375 C3.58125 8.283125 3.7875 9.12875 4 10 C4.66 10.33 5.32 10.66 6 11 C7.2943008 16.95378366 7.09874503 22.93266655 7 29 C7.66 29 8.32 29 9 29 C9.33 31.97 9.66 34.94 10 38 C10.99 38.33 11.98 38.66 13 39 C13.625 41.3125 13.625 41.3125 14 44 C13.34 44.99 12.68 45.98 12 47 C8.26372265 37.24858111 5.17899698 27.44196412 2.625 17.3125 C2.36251465 16.28576172 2.1000293 15.25902344 1.82958984 14.20117188 C0.64631286 9.3855282 -0.3577928 5.00058034 0 0 Z " fill="#A0614C" transform="translate(39,105)"/>
<path d="M0 0 C-1 3 -1 3 -3 4 C-4.91711092 3.99426015 -6.83421369 3.94648456 -8.75 3.875 C-13.61577528 3.84586362 -16.97113647 4.0041784 -21 7 C-23.39380091 10.19512368 -23.39380091 10.19512368 -24 14 C-25.32 14.33 -26.64 14.66 -28 15 C-28 11.26928616 -27.98416917 9.06338279 -25.3984375 6.26953125 C-17.40016996 0.01605952 -9.84500119 -0.29098526 0 0 Z " fill="#832E20" transform="translate(69,92)"/>
<path d="M0 0 C0 0.66 0 1.32 0 2 C-28.88311604 10.28506617 -28.88311604 10.28506617 -37 10 C-37 9.34 -37 8.68 -37 8 C-32.37496756 6.85478288 -27.74849953 5.71562913 -23.12060547 4.58203125 C-21.54695526 4.19566852 -19.97370778 3.80766154 -18.40087891 3.41796875 C-16.1380879 2.85763137 -13.87390725 2.3032525 -11.609375 1.75 C-10.90818542 1.57500977 -10.20699585 1.40001953 -9.48455811 1.21972656 C-6.18188393 0.41871198 -3.42715045 0 0 0 Z " fill="#FDE2C9" transform="translate(112,76)"/>
<path d="M0 0 C-6.87200827 6.87200827 -19.93465597 5.69501743 -29 6 C-29.33 4.35 -29.66 2.7 -30 1 C-29.34 1.66 -28.68 2.32 -28 3 C-23.34375005 2.58984222 -23.34375005 2.58984222 -19 1 C-16.73335224 0.76730232 -14.46111915 0.58748744 -12.1875 0.4375 C-10.96417969 0.35371094 -9.74085937 0.26992187 -8.48046875 0.18359375 C-5.64267836 0.0339011 -2.84024958 -0.03786999 0 0 Z " fill="#E59678" transform="translate(100,68)"/>
<path d="M0 0 C0.66 0 1.32 0 2 0 C2.48174737 3.62466179 2.95991383 7.24978778 3.4375 10.875 C3.63956055 12.39480469 3.63956055 12.39480469 3.84570312 13.9453125 C4.67919176 20.2879577 5.40752657 26.63024836 6 33 C5.34 32.34 4.68 31.68 4 31 C3.34 31.66 2.68 32.32 2 33 C1.98018066 32.41508789 1.96036133 31.83017578 1.93994141 31.22753906 C1.84446519 28.56791975 1.73487858 25.90906162 1.625 23.25 C1.5940625 22.32960938 1.563125 21.40921875 1.53125 20.4609375 C1.49257812 19.57148437 1.45390625 18.68203125 1.4140625 17.765625 C1.3826416 16.94868164 1.3512207 16.13173828 1.31884766 15.29003906 C0.97506153 12.82088602 0.13333174 11.19849315 -1 9 C-1 5.88772805 -0.54372951 3.05847848 0 0 Z " fill="#A36F65" transform="translate(122,81)"/>
<path d="M0 0 C0.99 0.33 1.98 0.66 3 1 C3.73046875 2.84765625 3.73046875 2.84765625 4.1875 5.0625 C4.34605469 5.79597656 4.50460938 6.52945313 4.66796875 7.28515625 C4.77753906 7.85105469 4.88710938 8.41695312 5 9 C3.56656 9.53190541 2.12804633 10.05015258 0.6875 10.5625 C-0.51326172 10.99755859 -0.51326172 10.99755859 -1.73828125 11.44140625 C-4 12 -4 12 -7 11 C-6.21258141 9.53936857 -5.4199095 8.08156827 -4.625 6.625 C-4.18414062 5.81289062 -3.74328125 5.00078125 -3.2890625 4.1640625 C-2 2 -2 2 0 0 Z " fill="#EA947C" transform="translate(57,79)"/>
<path d="M0 0 C-0.99 0.495 -0.99 0.495 -2 1 C-2 1.66 -2 2.32 -2 3 C-2.99 3 -3.98 3 -5 3 C-5.33 3.66 -5.66 4.32 -6 5 C-6.99 4.814375 -7.98 4.62875 -9 4.4375 C-15.95303266 3.5305827 -23.04239521 4.45115982 -30 5 C-30 4.67 -30 4.34 -30 4 C-29.09378906 3.80664062 -28.18757813 3.61328125 -27.25390625 3.4140625 C-26.03574219 3.15367188 -24.81757812 2.89328125 -23.5625 2.625 C-22.28375 2.35429688 -21.005 2.08359375 -19.6875 1.8046875 C-16.79311779 1.17307443 -13.93304226 0.47760273 -11.0625 -0.25 C-7.0814693 -1.15952387 -3.97928108 -0.84665555 0 0 Z " fill="#D97F66" transform="translate(117,64)"/>
<path d="M0 0 C1.5 1.6875 1.5 1.6875 2 4 C0.625 7.75 0.625 7.75 -1 11 C-1.33 10.34 -1.66 9.68 -2 9 C-4.01669827 7.86649466 -4.01669827 7.86649466 -6 7 C-6 6.01 -6 5.02 -6 4 C-5.34 4 -4.68 4 -4 4 C-4 3.01 -4 2.02 -4 1 C-5.98 1 -7.96 1 -10 1 C-10 0.34 -10 -0.32 -10 -1 C-5.9846258 -2.14724977 -3.66532314 -2.08031854 0 0 Z " fill="#A05B53" transform="translate(69,65)"/>
<path d="M0 0 C1.25 2.5625 1.25 2.5625 2 5 C-0.14593446 5 -2.29227062 4.99250588 -4.4375 4.9375 C-7.06879896 5.00167802 -9.43863729 5.41454567 -12 6 C-12.33 4.68 -12.66 3.36 -13 2 C-11.5882217 1.46605821 -10.17029756 0.94834896 -8.75 0.4375 C-7.96109375 0.14746094 -7.1721875 -0.14257812 -6.359375 -0.44140625 C-3.76855179 -1.05479651 -2.44363443 -1.02889871 0 0 Z " fill="#88382C" transform="translate(120,82)"/>
<path d="M0 0 C-7.16559005 5.95192863 -17.0180644 6.49617769 -26 7 C-26 6.34 -26 5.68 -26 5 C-22.30020177 3.36853916 -18.86891293 2.53308351 -14.875 1.9375 C-1.77205058 -0.0393789 -1.77205058 -0.0393789 0 0 Z " fill="#FB9C71" transform="translate(100,70)"/>
<path d="M0 0 C0.33 0 0.66 0 1 0 C1 3.96 1 7.92 1 12 C-2.47325181 13.1577506 -5.36067448 13.06866652 -9 13 C-9.66 10.36 -10.32 7.72 -11 5 C-10.01 5 -9.02 5 -8 5 C-7.67 6.65 -7.34 8.3 -7 10 C-5.35 10.33 -3.7 10.66 -2 11 C-2 10.34 -2 9.68 -2 9 C-1.34 9 -0.68 9 0 9 C0 6.03 0 3.06 0 0 Z " fill="#CD5741" transform="translate(70,73)"/>
<path d="M0 0 C0.66 0 1.32 0 2 0 C2.33 4.62 2.66 9.24 3 14 C1.02 14.99 1.02 14.99 -1 16 C-2.5452303 18.1554584 -2.5452303 18.1554584 -3.75 20.625 C-4.17796875 21.44226563 -4.6059375 22.25953125 -5.046875 23.1015625 C-5.36140625 23.72804688 -5.6759375 24.35453125 -6 25 C-6.66 25 -7.32 25 -8 25 C-7.00722043 20.92960374 -5.75174433 18.6210484 -2.8125 15.75 C-0.71929768 13.48994822 -0.02653718 12.51903608 0.1328125 9.40234375 C-0.07521494 7.63918438 -0.33933315 5.88142646 -0.66796875 4.13671875 C-1 2 -1 2 0 0 Z " fill="#CE9A8C" transform="translate(56,66)"/>
<path d="M0 0 C0.8971875 1.1446875 0.8971875 1.1446875 1.8125 2.3125 C3.46959332 4.3483575 5.10297674 6.1978279 7 8 C6.67 8.66 6.34 9.32 6 10 C4.5608866 9.71640113 3.12374482 9.42278601 1.6875 9.125 C0.88699219 8.96257812 0.08648437 8.80015625 -0.73828125 8.6328125 C-3.92310819 7.74172102 -6.26094459 5.82603694 -9 4 C-6.69 4.33 -4.38 4.66 -2 5 C-2 3.68 -2 2.36 -2 1 C-1.34 0.67 -0.68 0.34 0 0 Z " fill="#E5A38C" transform="translate(118,71)"/>
<path d="M0 0 C-0.99 0.495 -0.99 0.495 -2 1 C-2 2.65 -2 4.3 -2 6 C-2.33 5.01 -2.66 4.02 -3 3 C-6.09989639 2.08826577 -7.70383757 1.90127919 -10.8125 2.9375 C-14.77289775 4.25763258 -17.84339129 4.14333133 -22 4 C-16.88094804 -1.11905196 -6.78222695 -1.73498829 0 0 Z " fill="#772C1C" transform="translate(124,80)"/>
<path d="M0 0 C0.12375 0.639375 0.2475 1.27875 0.375 1.9375 C0.684375 2.9584375 0.684375 2.9584375 1 4 C1.66 4.33 2.32 4.66 3 5 C3 5.66 3 6.32 3 7 C1.25 8.125 1.25 8.125 -1 9 C-3.25 8.125 -3.25 8.125 -5 7 C-5 5.68 -5 4.36 -5 3 C-5.66 2.67 -6.32 2.34 -7 2 C-4.69 1.34 -2.38 0.68 0 0 Z " fill="#76271C" transform="translate(101,87)"/>
<path d="M0 0 C-6.80074041 1.90420731 -12.91923749 3.40850553 -20 3 C-15.85705111 -1.58683627 -11.56857013 -1.66676889 -5.7421875 -2.1171875 C-3 -2 -3 -2 0 0 Z " fill="#A25041" transform="translate(124,167)"/>
<path d="M0 0 C0.33 0 0.66 0 1 0 C1 1.65 1 3.3 1 5 C1.66 5 2.32 5 3 5 C3.185625 6.2065625 3.185625 6.2065625 3.375 7.4375 C3.58125 8.283125 3.7875 9.12875 4 10 C4.66 10.33 5.32 10.66 6 11 C6.25 17.625 6.25 17.625 4 21 C3.32382476 18.62734939 2.65891774 16.25244645 2 13.875 C1.80921875 13.20984375 1.6184375 12.5446875 1.421875 11.859375 C0.30791545 7.8013795 -0.20950232 4.20314026 0 0 Z " fill="#9C6456" transform="translate(39,105)"/>
<path d="M0 0 C0 0.66 0 1.32 0 2 C-5.28 2.66 -10.56 3.32 -16 4 C-16.33 3.01 -16.66 2.02 -17 1 C-15.10440036 0.83069605 -13.20850769 0.66467136 -11.3125 0.5 C-10.25675781 0.4071875 -9.20101562 0.314375 -8.11328125 0.21875 C-5.39363975 0.0276585 -2.72460144 -0.04043935 0 0 Z " fill="#9B3E2B" transform="translate(88,161)"/>
<path d="M0 0 C0.99 0.33 1.98 0.66 3 1 C3.33 2.98 3.66 4.96 4 7 C1.36 7 -1.28 7 -4 7 C-2.92598892 4.08482708 -2.22189824 2.22189824 0 0 Z " fill="#EE9177" transform="translate(57,79)"/>
<path d="M0 0 C0.66 0.66 1.32 1.32 2 2 C6.65624995 1.58984222 6.65624995 1.58984222 11 0 C12.54023996 -0.06950541 14.08334988 -0.08452357 15.625 -0.0625 C16.85089844 -0.04896484 16.85089844 -0.04896484 18.1015625 -0.03515625 C19.04128906 -0.01775391 19.04128906 -0.01775391 20 0 C16.26370979 3.73629021 9.85380476 3.84362714 4.71875 4.125 C3.14528155 4.125 1.5719167 4.06986296 0 4 C0 2.68 0 1.36 0 0 Z " fill="#D2A493" transform="translate(70,69)"/>
<path d="M0 0 C0.33 0.66 0.66 1.32 1 2 C1.66 2.33 2.32 2.66 3 3 C2.505 3.61875 2.01 4.2375 1.5 4.875 C-0.19222773 6.83880904 -0.19222773 6.83880904 0 9 C-1.32 9.33 -2.64 9.66 -4 10 C-3.38461538 3.47692308 -3.38461538 3.47692308 -1.4375 1.0625 C-0.7259375 0.5365625 -0.7259375 0.5365625 0 0 Z " fill="#88392F" transform="translate(45,97)"/>
<path d="M0 0 C2.56616632 3.84924948 2.55097676 6.4349304 3 11 C3.99 11.33 4.98 11.66 6 12 C3.36 12.33 0.72 12.66 -2 13 C-1.67 12.01 -1.34 11.02 -1 10 C-1.66 9.34 -2.32 8.68 -3 8 C-2.01 8 -1.02 8 0 8 C0 5.36 0 2.72 0 0 Z " fill="#E8785A" transform="translate(71,77)"/>
<path d="M0 0 C0 0.99 0 1.98 0 3 C-5.94 3.495 -5.94 3.495 -12 4 C-12.33 3.34 -12.66 2.68 -13 2 C-8.49646738 0.24252386 -4.82360189 -0.19294408 0 0 Z " fill="#7A271A" transform="translate(88,87)"/>
<path d="M0 0 C0 0.33 0 0.66 0 1 C-2.22771342 1.50643553 -4.45724076 2.0048962 -6.6875 2.5 C-8.54955078 2.91765625 -8.54955078 2.91765625 -10.44921875 3.34375 C-13.42398218 3.89354126 -15.99368602 4.13795705 -19 4 C-19 3.34 -19 2.68 -19 2 C-16.9620493 1.46481117 -14.91940991 0.94745907 -12.875 0.4375 C-11.73804687 0.14746094 -10.60109375 -0.14257812 -9.4296875 -0.44140625 C-5.93510616 -1.01056927 -3.42796653 -0.78666101 0 0 Z " fill="#FDD6BB" transform="translate(94,82)"/>
<path d="M0 0 C0.66 1.32 1.32 2.64 2 4 C2.66 4 3.32 4 4 4 C4.33 4.66 4.66 5.32 5 6 C8.96 6 12.92 6 17 6 C17 6.33 17 6.66 17 7 C14.89981487 7.41644184 12.79458958 7.80753303 10.6875 8.1875 C9.51574219 8.40792969 8.34398438 8.62835938 7.13671875 8.85546875 C4 9 4 9 2.125 7.75 C0.53460596 5.27605371 0.32097229 2.88875062 0 0 Z " fill="#94503E" transform="translate(59,169)"/>
<path d="M0 0 C0.99 0 1.98 0 3 0 C2.690625 0.680625 2.38125 1.36125 2.0625 2.0625 C0.86629351 5.36965912 0.40994603 8.51545878 0 12 C-0.66 12 -1.32 12 -2 12 C-2 10.35 -2 8.7 -2 7 C-2.66 7 -3.32 7 -4 7 C-4 5.02 -4 3.04 -4 1 C-3.67 1.99 -3.34 2.98 -3 4 C-1.68 3.67 -0.36 3.34 1 3 C0.67 2.01 0.34 1.02 0 0 Z " fill="#924237" transform="translate(44,103)"/>
<path d="M0 0 C0.66 0.66 1.32 1.32 2 2 C-1.4352048 4.29013653 -2.985331 4.17842973 -7 4 C-7 4.66 -7 5.32 -7 6 C-7.99 6 -8.98 6 -10 6 C-8.125 2.125 -8.125 2.125 -7 1 C-3.5625 0.3125 -3.5625 0.3125 0 0 Z " fill="#C75B3F" transform="translate(69,116)"/>
<path d="M0 0 C0.33 0.66 0.66 1.32 1 2 C4.465 1.505 4.465 1.505 8 1 C7.67 2.32 7.34 3.64 7 5 C5.02 5.33 3.04 5.66 1 6 C0.34 4.35 -0.32 2.7 -1 1 C-0.67 0.67 -0.34 0.34 0 0 Z " fill="#683A39" transform="translate(58,64)"/>
<path d="M0 0 C0.66 0.66 1.32 1.32 2 2 C1.360625 2.2475 0.72125 2.495 0.0625 2.75 C-2.16109949 3.7749381 -2.16109949 3.7749381 -2.5 5.8125 C-2.665 6.534375 -2.83 7.25625 -3 8 C-4.28062485 9.7074998 -5.6072711 11.38263741 -7 13 C-6.70876501 7.02968261 -3.97185616 4.105466 0 0 Z " fill="#D5AFA0" transform="translate(47,91)"/>
<path d="M0 0 C0.99 0.33 1.98 0.66 3 1 C4.66362417 1.34820041 6.32995171 1.68404492 8 2 C5.23776722 4.76223278 2.79293383 4.57856291 -1 5 C-1.33 3.68 -1.66 2.36 -2 1 C-1.34 0.67 -0.68 0.34 0 0 Z " fill="#ECA17B" transform="translate(85,77)"/>
<path d="M0 0 C3.96 0 7.92 0 12 0 C11.67 0.99 11.34 1.98 11 3 C8.69 3.33 6.38 3.66 4 4 C3.67 3.34 3.34 2.68 3 2 C2.01 1.34 1.02 0.68 0 0 Z " fill="#B15143" transform="translate(57,92)"/>
<path d="M0 0 C-2.93447357 2.93447357 -6.18259456 2.46158423 -10.125 2.625 C-10.87910156 2.66367188 -11.63320312 2.70234375 -12.41015625 2.7421875 C-14.27303184 2.83651031 -16.13648255 2.91934662 -18 3 C-18 2.67 -18 2.34 -18 2 C-15.75256955 1.46818825 -13.50192898 0.94992874 -11.25 0.4375 C-9.99703125 0.14746094 -8.7440625 -0.14257812 -7.453125 -0.44140625 C-4.40526252 -0.93444283 -2.82358172 -1.07666879 0 0 Z " fill="#C88578" transform="translate(105,66)"/>
<path d="M0 0 C1 3 1 3 0 6 C-2.0625 6.6875 -2.0625 6.6875 -4 7 C-4.33 5.02 -4.66 3.04 -5 1 C-3 0 -3 0 0 0 Z " fill="#E7A68C" transform="translate(120,64)"/>
<path d="M0 0 C0.33 0 0.66 0 1 0 C1 2.97 1 5.94 1 9 C0.34 9 -0.32 9 -1 9 C-1 9.66 -1 10.32 -1 11 C-1.99 10.67 -2.98 10.34 -4 10 C-4 9.01 -4 8.02 -4 7 C-2.68 7 -1.36 7 0 7 C0 6.01 0 5.02 0 4 C-0.66 3.67 -1.32 3.34 -2 3 C-1.34 2.01 -0.68 1.02 0 0 Z " fill="#B94B31" transform="translate(69,73)"/>
<path d="M0 0 C-3.69172595 3.53790403 -7.09390595 3.59115883 -12 4 C-12 3.34 -12 2.68 -12 2 C-7.82262526 0.40861915 -4.46839215 -0.21278058 0 0 Z " fill="#FDA678" transform="translate(100,70)"/>
<path d="M0 0 C2.23318995 4.46637991 3.11664144 7.03570488 3.0625 12.125 C3.05347656 13.22070312 3.04445312 14.31640625 3.03515625 15.4453125 C3.02355469 16.28835937 3.01195312 17.13140625 3 18 C0.06552643 15.06552643 0.53841577 11.81740544 0.375 7.875 C0.33632812 7.12089844 0.29765625 6.36679688 0.2578125 5.58984375 C0.16348969 3.72696816 0.08065338 1.86351745 0 0 Z " fill="#894836" transform="translate(126,110)"/>
<path d="M0 0 C0.99 0.33 1.98 0.66 3 1 C3.33 3.97 3.66 6.94 4 10 C3.34 10 2.68 10 2 10 C0.68373308 6.38026598 0 3.90432869 0 0 Z " fill="#8F4D40" transform="translate(57,68)"/>
<path d="M0 0 C0 0.66 0 1.32 0 2 C0.99 2.66 1.98 3.32 3 4 C0.69 4 -1.62 4 -4 4 C-4 3.34 -4 2.68 -4 2 C-5.32 1.67 -6.64 1.34 -8 1 C-2.25 0 -2.25 0 0 0 Z " fill="#B95036" transform="translate(90,111)"/>
<path d="M0 0 C1.98 0.66 3.96 1.32 6 2 C3.06279492 3.52299523 0.0831351 4.80100302 -3 6 C-3 4 -3 4 -1.5 2.4375 C-0.7575 1.7259375 -0.7575 1.7259375 0 1 C0 0.67 0 0.34 0 0 Z " fill="#D88272" transform="translate(48,91)"/>
<path d="M0 0 C1.8125 0.75 1.8125 0.75 2.8125 2.75 C-0.5625 3.375 -0.5625 3.375 -4.1875 3.75 C-4.8475 3.09 -5.5075 2.43 -6.1875 1.75 C-3.9127187 0.36888278 -2.68578639 -0.30694702 0 0 Z " fill="#E59171" transform="translate(114.1875,77.25)"/>
<path d="M0 0 C1.98 0.99 1.98 0.99 4 2 C4 3.65 4 5.3 4 7 C3.34 6.34 2.68 5.68 2 5 C1.34 5.66 0.68 6.32 0 7 C0 4.69 0 2.38 0 0 Z " fill="#A76859" transform="translate(124,107)"/>
<path d="M0 0 C2.31 0.33 4.62 0.66 7 1 C3.77484237 2.73662334 0.48670834 3.8905928 -3 5 C-3 4.34 -3 3.68 -3 3 C-2.34 3 -1.68 3 -1 3 C-0.67 2.01 -0.34 1.02 0 0 Z " fill="#823129" transform="translate(71,92)"/>
<path d="M0 0 C2.29013653 3.4352048 2.17842973 4.985331 2 9 C1.01 9.33 0.02 9.66 -1 10 C-1.66 9.34 -2.32 8.68 -3 8 C-2.01 8 -1.02 8 0 8 C0 5.36 0 2.72 0 0 Z " fill="#E76C4F" transform="translate(71,77)"/>
<path d="M0 0 C0.66 0 1.32 0 2 0 C2 0.99 2 1.98 2 3 C2.66 3 3.32 3 4 3 C4 3.99 4 4.98 4 6 C1.525 5.01 1.525 5.01 -1 4 C-0.67 2.68 -0.34 1.36 0 0 Z " fill="#9C3726" transform="translate(65,74)"/>
<path d="M0 0 C0.33 0.66 0.66 1.32 1 2 C0.22265625 3.9453125 0.22265625 3.9453125 -0.9375 6.125 C-1.31777344 6.84945312 -1.69804688 7.57390625 -2.08984375 8.3203125 C-2.39019531 8.87460938 -2.69054688 9.42890625 -3 10 C-3.33 10 -3.66 10 -4 10 C-3.38461538 3.47692308 -3.38461538 3.47692308 -1.4375 1.0625 C-0.7259375 0.5365625 -0.7259375 0.5365625 0 0 Z " fill="#753C31" transform="translate(45,97)"/>
<path d="M0 0 C0.66 0 1.32 0 2 0 C2.33 1.98 2.66 3.96 3 6 C1.68 5.67 0.36 5.34 -1 5 C-0.67 3.35 -0.34 1.7 0 0 Z " fill="#F98B6C" transform="translate(58,80)"/>
</svg>
